<?xml version="1.0" encoding="UTF-8"?>
<svg id="Layer_3" data-name="Layer 3" xmlns="http://www.w3.org/2000/svg" viewBox="0 0 50 50">
  <defs>
    <style>
      .cls-1 {
        stroke-width: 1.87px;
      }

      .cls-1, .cls-2 {
        fill: none;
        stroke: #000;
        stroke-linecap: round;
        stroke-linejoin: round;
      }

      .cls-2 {
        stroke-width: 2.81px;
      }
    </style>
  </defs>
  <path class="cls-2" d="M19.3,46.89c-.16-.46-.05-1.02,.15-1.47s.46-.84,.61-1.32c.34-1.09-.67-1.51-.37-2.59,.22-.79,.84-1.32,.99-2.14,.1-.53,0-1.07-.29-1.46s-.78-.34-1.04-.73c-.43-.66,.52-1.24,.99-1.52,.98-.57,1.88-1.25,2.84-1.85,.88-.55,1.03-.57,1.82-1.25s2.35-2.55,2.79-3.48c1.07-2.28,1.77-4.96,1.8-7.46s-.35-5.3-1.46-7.69c-2.86-6.16-10.44-6.97-15.64-4.13-3.29,1.8-5.24,7.92-4.7,11.32,.52,3.25,2.23,6.74,4.21,9.4,1.4,1.88,4.11,3.34,6.27,4.15"/>
  <path class="cls-2" d="M24.98,8.3c1.61-2.93,6.08-4.33,8.43-4.42,2.82-.11,6.93,1.45,9.02,4.9s1.72,8.94,.22,12.43c-.59,1.37-1.29,2.55-2.1,3.57-1.3,1.64-2.89,2.87-4.8,3.86-.65,.34-1.28,.82-2,.75-1.16-.11-2.97-1.3-4.02-1.8"/>
  <path class="cls-2" d="M33.79,29.39c-.35,.29-.39,.57-.57,.92-.14,.3-.5,.64,.03,.83,.19,.07,.88,.13,1.12,.07,.56-.13,.18-1.14-.06-1.33"/>
  <path class="cls-2" d="M33.71,31.71c-.35,.58-.59,1.38,0,1.88,.33,.29,1.05,.7,.69,1.22-.44,.63-1.13,.98-1.25,1.83l.68,.93c-.07,.61-1.19,1.16-.93,1.77,.35,.8,1.19,1.17,1.77,1.76,.22,.22,.26,.5,.03,.74-.74,.75-1.91,1.02-1.9,2.31"/>
  <path class="cls-1" d="M20.16,11.98s4.57,0,5.95,4.34"/>
  <line class="cls-1" x1="26.76" y1="18.66" x2="26.94" y2="19.91"/>
  <path class="cls-1" d="M34.66,7.47s5.25,.76,6.18,5.98"/>
  <path d="M25.26,3.13c-.06,.61-3.02,3.59-3.57,3.67-.33,.05-.6-.04-.8-.31-.2-.28-.23-.62,0-.85,1.07-1.08,2.12-2.2,3.3-3.15,.52-.42,1.03,0,1.08,.64Z"/>
  <path d="M8.67,45.46c-1.77-.03-2.7-.99-2.68-2.79,.02-1.64,1.19-2.87,2.73-2.85,1.49,.01,2.94,1.51,2.89,2.99-.05,1.58-1.26,2.68-2.94,2.66Zm.13-1.22c.89-.1,1.47-.66,1.46-1.58,0-.87-.64-1.43-1.48-1.45-.91-.02-1.56,.49-1.56,1.49,0,.99,.56,1.47,1.59,1.54Z"/>
  <path d="M4.6,34.49c.35-.05,2.69,2.11,2.61,2.33-.39,1.13-1.72,1.4-2.24,2.42-.86-.75-1.72-1.5-2.58-2.26,.76-.85,1.51-1.71,2.21-2.49Z"/>
</svg>