<?xml version="1.0" encoding="UTF-8"?>
<svg id="Layer_3" data-name="Layer 3" xmlns="http://www.w3.org/2000/svg" viewBox="0 0 50 50">
  <defs>
    <style>
      .cls-1 {
        fill: none;
        stroke: #000;
        stroke-linecap: round;
        stroke-linejoin: round;
        stroke-width: 1.32px;
      }
    </style>
  </defs>
  <path d="M10.87,22.44c0,.89-.79,1.6-1.77,1.59-.99,0-1.75-.7-1.75-1.61,0-.91,.76-1.63,1.72-1.65,.99-.02,1.8,.73,1.79,1.66Z"/>
  <path d="M45.19,30.02c-1.34,0-2.36-.96-2.37-2.2,0-1.23,1.03-2.22,2.35-2.24,1.32-.03,2.46,1.03,2.45,2.27-.01,1.2-1.1,2.18-2.43,2.18Z"/>
  <path d="M32.78,7.4c-.38,.24-.79,.71-1.12,.66-.37-.05-.86-.52-.94-.88-.05-.23,.54-.78,.88-.81,.37-.03,.78,.39,1.17,.61v.41Z"/>
  <path d="M46.83,15.03c-.24-.36-.72-.76-.66-1.08,.06-.33,.62-.77,1-.8,.26-.03,.84,.54,.84,.84,0,.35-.48,.7-.74,1.05-.14,0-.29,0-.43,0Z"/>
  <path d="M37.72,22.41c-.25-.35-.7-.7-.69-1.05,0-.31,.58-.88,.81-.84,.39,.06,.93,.47,1,.81,.06,.31-.42,.71-.66,1.07-.15,0-.3,0-.45,.01Z"/>
  <path d="M2.4,29.69c-.24-.36-.73-.76-.67-1.07,.06-.34,.6-.77,.99-.83,.25-.04,.83,.54,.84,.84,0,.35-.46,.7-.72,1.06-.15,0-.29,0-.44,0Z"/>
  <path d="M26.41,4.17c-.39,.24-.77,.67-1.15,.66-.33,0-.95-.52-.92-.76,.04-.34,.51-.84,.88-.9,.34-.06,.78,.37,1.18,.59,0,.14,0,.28,.01,.42Z"/>
  <path d="M12.56,13.75c-.36,.24-.73,.68-1.08,.67-.32,0-.9-.54-.87-.78,.05-.36,.49-.86,.84-.93,.32-.06,.74,.38,1.11,.6,0,.14,0,.29,0,.43Z"/>
  <path d="M21.12,12.09c-.23-.37-.65-.74-.63-1.09,.02-.31,.59-.85,.82-.81,.37,.07,.87,.51,.92,.85,.04,.32-.43,.71-.67,1.06-.15,0-.3,0-.44,0Z"/>
  <path d="M22.7,46.09c-.38,.23-.77,.65-1.13,.63-.33-.02-.92-.55-.88-.79,.05-.35,.52-.84,.88-.9,.32-.05,.74,.4,1.12,.64,0,.14,0,.28,0,.42Z"/>
  <path d="M14.52,42.7c-.37,.23-.78,.67-1.11,.62-.36-.05-.83-.52-.89-.87-.04-.22,.53-.76,.86-.78,.37-.02,.76,.38,1.14,.6,0,.14,0,.29,0,.43Z"/>
  <path d="M10.11,44.27c-.38,.22-.8,.64-1.14,.59-.35-.05-.82-.54-.86-.88-.03-.24,.55-.75,.88-.76,.37-.01,.75,.4,1.13,.63v.42Z"/>
  <path d="M14.71,4.6c-1.57,.01-2.79,1.19-2.76,2.66,.03,1.48,1.27,2.6,2.85,2.58,1.57-.02,2.8-1.2,2.77-2.66-.03-1.46-1.28-2.59-2.86-2.58Zm.04,3.46c-.67,0-1.19-.48-1.19-1.1,0-.62,.52-1.11,1.17-1.12,.68-.01,1.23,.5,1.22,1.13,0,.61-.54,1.09-1.2,1.09Z"/>
  <path d="M36.83,27.56c-1.22,.11-2.11,1.11-2.03,2.3,.08,1.25,1.12,2.15,2.38,2.05,1.28-.1,2.16-1.1,2.07-2.36-.09-1.24-1.15-2.11-2.42-1.99Zm.27,3.17c-.57,.04-1.05-.37-1.08-.93-.04-.54,.36-1,.92-1.05,.58-.05,1.06,.34,1.1,.91,.04,.58-.36,1.03-.94,1.08Z"/>
  <g>
    <path class="cls-1" d="M8.11,18.38s1.29-.14,3.44-.45c7.15-1.04,23.75-4.03,33.66-10.42"/>
    <polyline class="cls-1" points="42.22 9.24 41.54 20.8 32.3 13.27 29.85 25.42 22.73 15.86 18.71 28.33 11.56 17.93"/>
    <path class="cls-1" d="M3.41,25.51s11.42,5.48,20.18,7.3c10.57,2.2,21.73,2.89,25.44,2.54"/>
    <polyline class="cls-1" points="7.16 27.2 2.64 37.6 8.56 35.34 10.73 40.71 15.49 30.47 16.74 30.89 18.41 41.93 25.64 33.4 27.5 33.97 26.22 44.65 30.55 41.93 34.4 45.65 35.96 34.88 37.28 34.88 41.54 45.65 47.09 35.8"/>
  </g>
</svg>