<?xml version="1.0" encoding="UTF-8"?>
<svg id="Layer_3" data-name="Layer 3" xmlns="http://www.w3.org/2000/svg" viewBox="0 0 50 50">
  <defs>
    <style>
      .cls-1 {
        stroke-miterlimit: 10;
      }

      .cls-1, .cls-2 {
        fill: none;
        stroke: #000;
        stroke-width: 2.98px;
      }

      .cls-2 {
        stroke-linecap: round;
        stroke-linejoin: round;
      }
    </style>
  </defs>
  <g>
    <path class="cls-1" d="M36.31,20.88c5.42,1.27,8.97,3.41,8.97,5.82,0,3.86-9.08,7-20.35,7.06-.12,0-.24,0-.36,0-3.41,0-6.64-.28-9.47-.78"/>
    <path class="cls-1" d="M26.87,19.67c1.83,.07,3.58,.22,5.24,.44"/>
    <path class="cls-1" d="M12.39,32.41c-5.17-1.28-8.53-3.37-8.53-5.72,0-3.61,7.94-6.59,18.19-7.01"/>
  </g>
  <path class="cls-1" d="M14.81,32.93c2.91,.53,6.23,.83,9.76,.83,.12,0,.24,0,.36,0,11.27-.06,20.35-3.2,20.35-7.06v4.21c-.56,.69-1.1,1.57-1.92,2.14-.43,.3-1.47,.9-1.47,1.42,0,.79,.09,1.35,.18,2.37,.2,2.26,.81,4.45-1.2,4.73-3.33,.46-1.62-4.15-3.44-5.07-.91-.46-3.2-.52-3.05,3.12,.05,1.2,.14,4.73-1.8,4.73s-2.2-2.28-2.41-3.69c-.13-.91-.19-3.13-1.47-3.24-1.52-.13-1.96,.94-1.97,2.13,0,1.16,.05,2.99-.75,3.91-.36,.41-1.16,.42-1.52,0-1.13-1.34-1.09-3.65-.94-5.29,.05-.56-.38-1.05-.95-1.06-1.08-.02-2.16-.08-3.22-.17-.47-.04-.89,.28-1.02,.73-.22,.84-.06,2.8-.66,3.23-.81,.57-1.6,.49-2.18-.56-.4-.72-.21-2.72-.22-2.82-.09-.72-.23-1.16-.82-1.29-.22-.05-.44-.1-.65-.15-.6-.14-1.26,.55-1.37,1.15-.2,1.08-.76,2.64-2.52,2.58-2.6-.1-2.25-3.81-2.18-5.34,.02-.43-.28-.81-.66-.99-1.24-.6-2.34-1.24-3.22-1.81v-4.97c0,2.26,3.1,4.27,7.92,5.56"/>
  <path class="cls-1" d="M22.05,26.2V15.28s.21-1.22,2.48-1.35,2.34,1.23,2.34,1.23v11.05"/>
  <path class="cls-1" d="M24.57,2.97s-6.73,8.74,0,8.74,0-8.74,0-8.74Z"/>
  <path class="cls-2" d="M45.28,30.9v10.17c0,1.44-1.26,2.77-3.42,3.89-3.71,1.91-10.06,3.18-17.29,3.18-3.92,0-7.58-.37-10.7-1.02-6-1.24-10.01-3.48-10.01-6.05v-9.41c.88,.56,1.98,1.21,3.22,1.81,.39,.19,.68,.57,.66,.99-.07,1.54-.43,5.25,2.18,5.34,1.76,.06,2.32-1.5,2.52-2.58,.11-.61,.77-1.3,1.37-1.15,.21,.05,.43,.1,.65,.15,.58,.12,.73,.57,.82,1.29,.01,.1-.18,2.1,.22,2.82,.58,1.05,1.37,1.12,2.18,.56,.6-.43,.44-2.39,.66-3.23,.12-.46,.54-.78,1.02-.73,1.06,.09,2.14,.15,3.22,.17,.56,.01,1,.5,.95,1.06-.15,1.64-.19,3.95,.94,5.29,.36,.42,1.16,.41,1.52,0,.8-.91,.74-2.75,.75-3.91,0-1.18,.45-2.26,1.97-2.13,1.28,.11,1.33,2.33,1.47,3.24,.21,1.41,.54,3.69,2.41,3.69s1.85-3.53,1.8-4.73c-.15-3.64,2.14-3.58,3.05-3.12,1.82,.92,.11,5.53,3.44,5.07,2.01-.28,1.4-2.47,1.2-4.73-.09-1.02-.17-1.58-.18-2.37,0-.52,1.04-1.12,1.47-1.42,.82-.57,1.36-1.45,1.92-2.14Z"/>
</svg>