<?xml version="1.0" encoding="UTF-8"?>
<svg id="Layer_3" data-name="Layer 3" xmlns="http://www.w3.org/2000/svg" viewBox="0 0 50 50">
  <defs>
    <style>
      .cls-1 {
        stroke-width: 5.77px;
      }

      .cls-1, .cls-2 {
        fill: none;
        stroke: #000;
        stroke-linecap: round;
        stroke-linejoin: round;
      }

      .cls-2 {
        stroke-width: 2.09px;
      }
    </style>
  </defs>
  <path class="cls-2" d="M49.04,14.65v2.71c0,1.29-.44,2.49-1.19,3.44-1.03,1.31-2.62,2.16-4.4,2.16H7.31c-1.77,0-3.35-.83-4.38-2.13-.76-.95-1.22-2.16-1.22-3.47v-2.71c0-3.08,2.52-5.59,5.6-5.59h2.61v4.77c0,.84,.69,1.52,1.52,1.52h2.42c.84,0,1.52-.68,1.52-1.52v-4.77h18.84v4.77c0,.84,.69,1.52,1.52,1.52h2.42c.84,0,1.52-.68,1.52-1.52v-4.77h3.76c3.08,0,5.59,2.52,5.59,5.59Z"/>
  <path class="cls-2" d="M47.85,20.8v21.25c0,3.08-2.52,5.59-5.59,5.59H8.52c-3.08,0-5.59-2.52-5.59-5.59V20.83c1.03,1.29,2.61,2.13,4.38,2.13H43.44c1.78,0,3.38-.84,4.4-2.16Z"/>
  <path class="cls-2" d="M11.44,3.35h2.42c.84,0,1.52,.68,1.52,1.52V13.83c0,.84-.68,1.52-1.52,1.52h-2.42c-.84,0-1.52-.68-1.52-1.52V4.87c0-.84,.68-1.52,1.52-1.52Z"/>
  <path class="cls-2" d="M35.74,3.35h2.42c.84,0,1.52,.68,1.52,1.52V13.83c0,.84-.68,1.52-1.52,1.52h-2.42c-.84,0-1.52-.68-1.52-1.52V4.87c0-.84,.68-1.52,1.52-1.52Z"/>
  <path class="cls-2" d="M47.85,38.06s-2.31,1.76-6.36,1.58c0,0-.4,7.27-3.99,8.02"/>
  <polyline class="cls-1" points="27.3 31.58 31.74 36.88 35.84 31.58"/>
</svg>