<?xml version="1.0" encoding="UTF-8"?>
<svg id="Layer_3" data-name="Layer 3" xmlns="http://www.w3.org/2000/svg" viewBox="0 0 50 50">
  <defs>
    <style>
      .cls-1 {
        fill: none;
        stroke: #000;
        stroke-linecap: round;
        stroke-linejoin: round;
        stroke-width: 2.88px;
      }
    </style>
  </defs>
  <path d="M11.1,21.66c0,.86-.76,1.54-1.7,1.53-.95,0-1.68-.67-1.68-1.54,0-.87,.73-1.57,1.65-1.58,.96-.02,1.73,.7,1.72,1.59Z"/>
  <path d="M44.1,28.95c-1.29,0-2.27-.92-2.28-2.12,0-1.18,.99-2.13,2.26-2.16,1.27-.02,2.37,.99,2.36,2.18-.01,1.15-1.06,2.09-2.33,2.09Z"/>
  <path d="M32.17,7.2c-.36,.23-.76,.68-1.08,.64-.36-.05-.83-.5-.9-.84-.05-.22,.52-.75,.85-.78,.35-.03,.75,.37,1.12,.59v.39Z"/>
  <path d="M45.68,14.53c-.23-.35-.69-.73-.63-1.04,.06-.32,.59-.74,.96-.77,.25-.03,.8,.52,.81,.81,0,.33-.46,.67-.72,1.01-.14,0-.28,0-.42,0Z"/>
  <path d="M36.92,21.63c-.24-.34-.68-.68-.67-1.01,0-.29,.56-.84,.78-.81,.38,.06,.9,.45,.96,.77,.06,.3-.4,.69-.63,1.03-.14,0-.29,0-.43,.01Z"/>
  <path d="M2.95,28.63c-.23-.35-.7-.73-.64-1.03,.06-.33,.58-.74,.95-.8,.24-.03,.8,.52,.81,.81,0,.33-.44,.68-.69,1.02-.14,0-.28,0-.42,0Z"/>
  <path d="M26.05,4.09c-.37,.23-.74,.64-1.11,.64-.32,0-.91-.5-.89-.73,.04-.33,.49-.81,.85-.87,.33-.06,.75,.36,1.14,.57,0,.13,0,.27,.01,.4Z"/>
  <path d="M12.73,13.3c-.35,.23-.7,.65-1.04,.65-.31,0-.86-.52-.84-.75,.04-.34,.47-.83,.8-.89,.31-.06,.71,.37,1.07,.58,0,.14,0,.28,0,.42Z"/>
  <path d="M20.96,11.71c-.22-.35-.62-.71-.6-1.05,.02-.3,.56-.82,.79-.78,.35,.06,.84,.49,.89,.82,.04,.31-.41,.68-.65,1.02-.14,0-.28,0-.43,0Z"/>
  <path d="M22.48,44.4c-.36,.22-.74,.63-1.08,.61-.32-.02-.88-.53-.85-.76,.05-.34,.5-.81,.85-.87,.31-.05,.71,.39,1.08,.61,0,.14,0,.27,0,.41Z"/>
  <path d="M14.61,41.15c-.36,.22-.75,.64-1.07,.6-.35-.05-.8-.5-.86-.84-.04-.22,.51-.73,.82-.75,.35-.02,.73,.37,1.1,.58,0,.14,0,.28,0,.41Z"/>
  <path d="M10.37,42.65c-.37,.21-.77,.62-1.09,.57-.34-.05-.78-.52-.83-.85-.03-.23,.53-.72,.85-.73,.35-.01,.72,.39,1.08,.61v.41Z"/>
  <path d="M14.79,4.51c-1.51,0-2.68,1.14-2.66,2.55,.03,1.42,1.22,2.5,2.74,2.48,1.51-.02,2.7-1.15,2.67-2.56-.03-1.41-1.23-2.49-2.75-2.48Zm.04,3.33c-.65,0-1.15-.46-1.15-1.05,0-.59,.5-1.07,1.13-1.08,.65-.01,1.18,.48,1.18,1.09,0,.59-.52,1.05-1.16,1.05Z"/>
  <path d="M36.06,26.59c-1.18,.11-2.02,1.07-1.95,2.22,.08,1.2,1.08,2.06,2.29,1.97,1.23-.09,2.07-1.06,1.99-2.27-.09-1.19-1.1-2.03-2.33-1.92Zm.26,3.05c-.55,.04-1-.35-1.04-.9-.03-.52,.35-.96,.89-1.01,.56-.05,1.02,.33,1.06,.87,.04,.55-.34,.99-.9,1.03Z"/>
  <g>
    <path class="cls-1" d="M8.45,17.76s1.24-.13,3.31-.43c6.87-1,22.84-3.87,32.37-10.02"/>
    <polyline class="cls-1" points="41.25 8.97 40.59 20.09 31.71 12.85 29.35 24.52 22.51 15.34 18.64 27.33 11.76 17.32"/>
    <path class="cls-1" d="M3.92,24.61s10.98,5.27,19.41,7.02c10.16,2.11,20.9,2.78,24.46,2.44"/>
    <polyline class="cls-1" points="7.54 26.24 3.19 36.24 8.88 34.07 10.97 39.23 15.54 29.38 16.74 29.79 18.35 40.4 25.31 32.2 27.1 32.75 25.86 43.02 30.03 40.4 33.73 43.98 35.23 33.62 36.5 33.62 40.59 43.98 45.93 34.51"/>
  </g>
</svg>