<?xml version="1.0" encoding="UTF-8"?>
<svg id="Layer_3" data-name="Layer 3" xmlns="http://www.w3.org/2000/svg" viewBox="0 0 50 50">
  <defs>
    <style>
      .cls-1 {
        fill: none;
        stroke: #000;
        stroke-miterlimit: 10;
        stroke-width: .78px;
      }
    </style>
  </defs>
  <circle class="cls-1" cx="17.64" cy="18.34" r="1.02"/>
  <circle class="cls-1" cx="39.31" cy="22.59" r="1.02"/>
  <circle class="cls-1" cx="32.86" cy="6.13" r="1.02"/>
  <circle class="cls-1" cx="48.69" cy="11.74" r="1.02"/>
  <circle class="cls-1" cx="2.06" cy="28.45" r="1.02"/>
  <circle class="cls-1" cx="20.53" cy="45.2" r="1.02"/>
  <circle class="cls-1" cx="46.37" cy="40.01" r="1.02"/>
  <circle class="cls-1" cx="21.37" cy="27.43" r="1.02"/>
  <path class="cls-1" d="M4.09,21.35c.29,.03,.59,.06,.94,.1v1.56c-.33,.04-.63,.08-.91,.11q-.27,1.08-1.88,.9c-.05-.26-.09-.53-.15-.86-.29-.05-.59-.09-.96-.16v-1.56c.33-.04,.63-.08,.97-.12,.04-.29,.07-.55,.11-.8,1.39-.37,1.67-.26,1.89,.82Z"/>
  <path class="cls-1" d="M5.36,11.6c-.04,.34-.06,.6-.09,.92h-1.73c-.04-.3-.07-.58-.11-.9-.33-.04-.63-.07-.98-.12v-1.53c.33-.06,.63-.11,.97-.17,.04-.27,.09-.55,.14-.86h1.67c.06,.31,.11,.59,.16,.89,.31,.03,.58,.06,.95,.1v1.58c-.29,.03-.59,.06-.97,.1Z"/>
  <path class="cls-1" d="M19.59,35.39c-.04,.34-.06,.6-.09,.92h-1.73c-.04-.3-.07-.58-.11-.9-.33-.04-.63-.07-.98-.12v-1.53c.33-.06,.63-.11,.97-.17,.04-.27,.09-.55,.14-.86h1.67c.06,.31,.11,.59,.16,.89,.31,.03,.58,.06,.95,.1v1.58c-.29,.03-.59,.06-.97,.1Z"/>
  <path class="cls-1" d="M40.13,44.31c.74,.01,1.22-.2,1.08-1h1.69c.05,.25,.11,.52,.19,.85,.29,.06,.59,.11,.95,.18v1.5c-.66,.04-1.33,.12-.99,1.04h-1.74c-.05-.26-.11-.53-.18-.87-.3-.06-.62-.13-.99-.21v-1.49Z"/>
  <path class="cls-1" d="M32.16,17.27c.74,.01,1.22-.2,1.08-1h1.69c.05,.25,.11,.52,.19,.85,.29,.06,.59,.11,.95,.18v1.5c-.66,.04-1.33,.12-.99,1.04h-1.74c-.05-.26-.11-.53-.18-.87-.3-.06-.62-.13-.99-.21v-1.49Z"/>
  <path class="cls-1" d="M21.69,7.12h-1.62c-.06-.31-.12-.58-.18-.91-.31-.05-.61-.09-.95-.14v-1.51c.31-.04,.58-.08,.92-.13,.06-.26,.12-.54,.2-.88h1.62c.05,.26,.1,.53,.15,.85,.31,.06,.62,.11,.98,.18v1.5c-.31,.04-.61,.08-.96,.12-.06,.3-.11,.58-.17,.94Z"/>
  <path d="M19.98,12.1c-.73,.2-1.36,.48-2,.52-1.27,.08-2.54,0-3.81,.02-.43,0-.86,.07-1.46,.12,.16,.47,.23,.83,.41,1.15,.51,.94,1.09,1.85,1.59,2.8,1.08,2.08,.63,3.15-1.7,3.96-1.04,.36-2.12,.61-3.17,.94-.41,.13-.79,.33-1.39,.58,.56,.61,1,1.12,1.47,1.6,.78,.81,1.66,1.55,2.36,2.41,.86,1.06,.77,2.04-.34,2.88-1.13,.84-2.41,1.51-3.63,2.24-1.27,.76-1.3,.95-.08,1.78,.97,.66,2.01,1.23,2.99,1.89,1.72,1.14,1.88,2.79,.38,4.19-.57,.54-1.31,.92-1.95,1.4-.55,.42-1.01,.95-1.59,1.32-.44,.27-1.02,.36-1.57,.54-.37-.82-.1-1.43,.39-1.95,.37-.39,.84-.71,1.29-1.03,.51-.35,1.07-.63,1.58-.98,1.38-.96,1.35-1.57-.05-2.45-1.02-.64-2.1-1.23-3.04-1.96-1.69-1.31-1.59-2.73,.24-3.88,.97-.61,2.01-1.13,2.99-1.72,1.36-.81,1.38-1,.25-2.1-.65-.64-1.36-1.24-1.99-1.89-.38-.39-.74-.81-1-1.27-.62-1.1-.31-2.13,.91-2.65,1.17-.5,2.43-.84,3.66-1.22,2-.6,2.06-.72,1.1-2.4-.54-.96-1.16-1.9-1.58-2.9-.72-1.68,0-2.77,1.92-3,.87-.11,1.77-.04,2.66-.05,.57,0,1.17,.12,1.71,0,1.08-.26,1.74,.2,2.47,1.11"/>
  <path d="M38.89,1.35c.91,1.2,.64,2.17,.11,3.11-.4,.73-.92,1.41-1.29,2.15-.61,1.21-.31,1.71,1.11,1.92,1.13,.17,2.27,.24,3.4,.44,2.62,.45,3.31,1.9,1.95,4-.64,.98-1.31,1.93-1.97,2.9-.44,.65-.27,1.09,.52,1.34,.87,.27,1.74,.57,2.6,.86,.53,.18,1.08,.36,1.58,.6,1.7,.83,2.02,2.11,.77,3.45-.93,.99-2.03,1.86-3.02,2.8-.8,.76-.79,.94,.11,1.59,.82,.59,1.69,1.14,2.53,1.72,.35,.25,.71,.5,1.01,.8,1.28,1.23,1.19,2.47-.39,3.35-1.54,.86-3.15,1.63-4.8,2.31-.42,.17-1.08-.16-1.79-.51,.51-.43,.95-.97,1.53-1.28,1.04-.56,2.17-.97,3.24-1.47,.44-.2,.84-.48,1.47-.84-.9-.64-1.64-1.17-2.38-1.69-.73-.52-1.51-.99-2.17-1.57-1.02-.91-1.13-1.88-.25-2.91,.81-.93,1.81-1.72,2.71-2.58,.41-.39,.77-.81,1.29-1.36-.81-.33-1.43-.61-2.06-.84-.92-.33-1.87-.57-2.77-.93-1.87-.75-2.32-1.85-1.38-3.53,.61-1.09,1.39-2.09,2.07-3.15,.62-.97,.54-1.17-.67-1.39-1.21-.21-2.45-.32-3.67-.5-2.21-.33-3.16-1.72-2.45-3.68,.26-.71,.75-1.35,1.09-2.04,.28-.57,.41-1.21,.73-1.75,.28-.46,.75-.81,1.23-1.31Z"/>
  <path d="M33.7,35.82c-.89-.48-1.5-.83-2.13-1.15-.8-.41-1.65-.76-2.42-1.22-1.46-.88-1.72-1.86-.78-3.21,.63-.91,1.46-1.7,2.18-2.55,.32-.38,.62-.78,1.1-1.39-1.41-.23-2.58-.42-3.75-.61-.47-.08-.95-.12-1.41-.22-1.67-.37-2.48-1.58-1.97-3.11,.26-.77,.77-1.47,1.14-2.21,.31-.6,.52-1.24,.9-1.8,.3-.45,.77-.8,1.2-1.23,.75,.72,.75,1.44,.46,2.14-.26,.62-.65,1.2-1,1.79-.26,.44-.57,.85-.79,1.3-.49,1-.26,1.4,.9,1.58,1.25,.19,2.52,.31,3.76,.56,2.22,.45,2.81,1.88,1.46,3.57-.77,.97-1.63,1.87-2.47,2.79-.55,.6-.43,1.03,.32,1.37,.8,.36,1.59,.74,2.36,1.14,.53,.27,1.06,.54,1.53,.88,1.37,1,1.36,2.28-.08,3.18-.91,.57-1.93,1.01-2.92,1.47q-2.02,.95-.69,2.63c.64,.8,1.31,1.59,1.81,2.47,.93,1.63,.26,2.8-1.71,2.98-1.67,.15-3.36,.22-5.04,.17-.5-.01-.99-.53-1.64-.91,2.25-1.47,4.7-.45,7.07-1.04-.42-.61-.77-1.15-1.14-1.66-.6-.83-1.29-1.61-1.82-2.47-.67-1.09-.47-1.96,.63-2.69,.82-.54,1.75-.94,2.64-1.39,.66-.34,1.32-.66,2.27-1.14Z"/>
</svg>