<?xml version="1.0" encoding="UTF-8"?>
<svg id="Layer_3" data-name="Layer 3" xmlns="http://www.w3.org/2000/svg" viewBox="0 0 50 50">
  <defs>
    <style>
      .cls-1 {
        stroke-width: 1.57px;
      }

      .cls-1, .cls-2, .cls-3 {
        fill: none;
        stroke: #000;
        stroke-linecap: round;
        stroke-linejoin: round;
      }

      .cls-2 {
        stroke-width: 1.35px;
      }

      .cls-3 {
        stroke-width: .39px;
      }
    </style>
  </defs>
  <g>
    <path class="cls-2" d="M6.97,9.25c0,.95-.54,1.77-1.33,2.18-.12,.06-.24,.11-.37,.15-.24,.08-.49,.12-.76,.12-1.35,0-2.45-1.1-2.45-2.45s1.1-2.45,2.45-2.45,2.46,1.1,2.46,2.45Z"/>
    <g>
      <path class="cls-2" d="M15.54,21.31l-3.69-3.68c-1.57,2.07-4.3,5.3-7.22,7.12h0s-.3,5.98-.3,5.98h0c4.6-2.11,9.01-6.83,11.21-9.42Z"/>
      <path class="cls-2" d="M11.85,17.62h0s-6.2-6.19-6.2-6.19c-.12,.06-.24,.11-.37,.15l-.65,13.16c2.92-1.82,5.65-5.05,7.22-7.12Z"/>
      <path class="cls-2" d="M25.72,31.47l-.6,.22-4.52,1.67c1.15-1.18,2.21-2.74,2.99-4.03l1.86,1.86,.27,.27Z"/>
      <path class="cls-2" d="M19.48,25.24h0s-3.94-3.93-3.94-3.93h0c-2.2,2.59-6.61,7.31-11.21,9.42l-.26,5.3c6.36-2.07,12.64-7.95,15.41-10.79Z"/>
      <path class="cls-2" d="M23.58,29.34h0s-4.11-4.1-4.11-4.1c-2.76,2.84-9.05,8.72-15.41,10.79h0s-.17,3.53-.17,3.53l16.7-6.18c1.15-1.18,2.21-2.74,2.99-4.03Z"/>
      <path class="cls-2" d="M29.95,33.37c0,.3-.06,.59-.16,.86-.24,.61-.72,1.12-1.38,1.37l-4.03,1.49-.11,.04-6.53,2.42-13.55,5.02c-1.22,.45-2.59-.18-3.04-1.4-.1-.27-.15-.54-.15-.82,0-.96,.59-1.87,1.54-2.23l1.49-.55,21.03-7.79,.8-.29,.91-.34c1.22-.45,2.59,.18,3.04,1.4,.1,.27,.15,.54,.15,.82Z"/>
    </g>
  </g>
  <g>
    <path class="cls-2" d="M39.99,12.15c-.49,.82-1.37,1.25-2.25,1.19-.14,0-.27-.03-.4-.06-.25-.05-.49-.15-.72-.28-1.16-.69-1.55-2.2-.85-3.36,.69-1.17,2.2-1.55,3.36-.85,1.17,.69,1.55,2.2,.86,3.36Z"/>
    <path class="cls-2" d="M44.74,40.83l-5.37-.99h0l-14.98-2.76,4.03-1.49c.66-.24,1.15-.76,1.38-1.37,.11-.27,.16-.56,.16-.86,0-.27-.05-.55-.15-.82-.45-1.22-1.82-1.85-3.04-1.4l-.91,.34-.8,.29,.06-.09,.6-.22-.27-.27,1.29-1.94,3.31-4.99,7.29-10.98c.13,.03,.26,.05,.4,.06l2.16,8.49h0s1.29,5.06,1.29,5.06l1.37,5.39,1.43,5.63,.75,2.93Z"/>
    <polygon class="cls-2" points="25.72 31.47 25.12 31.69 25.45 31.2 25.72 31.47"/>
    <path class="cls-2" d="M47.7,43.85c-.05,.28-.15,.54-.29,.78-.49,.83-1.47,1.31-2.47,1.12l-25.4-4.68c-.86-.16-1.52-.76-1.8-1.53l6.53-2.42,20.58,3.79,.95,.17c1.28,.23,2.14,1.48,1.9,2.76Z"/>
  </g>
  <line class="cls-2" x1="43.3" y1="21.41" x2="46.18" y2="22.46"/>
  <line class="cls-2" x1="14.31" y1="5.7" x2="13.16" y2="8.6"/>
  <line class="cls-2" x1="16.69" y1="44.36" x2="15.54" y2="47.25"/>
  <line class="cls-2" x1="14.71" y1="12.56" x2="17.52" y2="10.41"/>
  <line class="cls-2" x1="1.6" y1="26.59" x2=".4" y2="23.89"/>
  <line class="cls-2" x1="42.93" y1="17.58" x2="46.55" y2="14.33"/>
  <line class="cls-2" x1="24.83" y1="45.01" x2="27.29" y2="48.41"/>
  <path class="cls-3" d="M39.93,35.36c-1.05,.83-1.2,1.43-.51,2.15,.4,.42,.78,.71,1.45,.34,.6-.33,.89-.75,.79-1.36-.11-.62-.43-1.16-1.21-1.13-.14,0-.27,0-.41,0"/>
  <path class="cls-3" d="M35.13,30.41c-1.18,.93-1.35,1.61-.57,2.43,.45,.47,.87,.8,1.63,.38,.67-.37,1-.85,.89-1.53-.12-.7-.49-1.3-1.37-1.28-.15,0-.31,0-.46,0"/>
  <path class="cls-3" d="M30.51,25.93c-1.05,.83-1.2,1.43-.51,2.15,.4,.42,.78,.71,1.45,.34,.6-.33,.89-.75,.79-1.36-.11-.62-.43-1.16-1.21-1.13-.14,0-.27,0-.41,0"/>
  <path class="cls-3" d="M35.78,21.62c-1.05,.83-1.2,1.43-.51,2.15,.4,.42,.78,.71,1.45,.34,.6-.33,.89-.75,.79-1.36-.11-.62-.43-1.16-1.21-1.13-.14,0-.27,0-.41,0"/>
  <path class="cls-3" d="M35.5,15.69c-1.21,.96-1.39,1.66-.59,2.5,.46,.49,.9,.83,1.68,.39,.69-.39,1.03-.87,.91-1.58-.13-.72-.5-1.34-1.41-1.32-.16,0-.32,0-.48,0"/>
  <path class="cls-3" d="M30.51,35.81c-1.05,.83-1.2,1.43-.51,2.15,.4,.42,.78,.71,1.45,.34,.6-.33,.89-.75,.79-1.36-.11-.62-.43-1.16-1.21-1.13-.14,0-.27,0-.41,0"/>
  <path class="cls-3" d="M39.93,26.94c-1.05,.83-1.2,1.43-.51,2.15,.4,.42,.78,.71,1.45,.34,.6-.33,.89-.75,.79-1.36-.11-.62-.43-1.16-1.21-1.13-.14,0-.27,0-.41,0"/>
  <g>
    <line class="cls-1" x1="26.47" y1="14.73" x2="27.02" y2="15.79"/>
    <line class="cls-1" x1="27.74" y1="16.07" x2="28.86" y2="15.49"/>
    <line class="cls-1" x1="28.11" y1="17.88" x2="27.56" y2="16.82"/>
    <line class="cls-1" x1="26.85" y1="16.54" x2="25.72" y2="17.12"/>
  </g>
</svg>