<?xml version="1.0" encoding="UTF-8"?>
<svg id="Layer_3" data-name="Layer 3" xmlns="http://www.w3.org/2000/svg" viewBox="0 0 50 50">
  <defs>
    <style>
      .cls-1 {
        fill: none;
        stroke: #000;
        stroke-linecap: round;
        stroke-linejoin: round;
        stroke-width: 2.81px;
      }
    </style>
  </defs>
  <g>
    <path class="cls-1" d="M9.01,9.65c0,.89-.5,1.66-1.24,2.04-.11,.06-.23,.11-.35,.14-.22,.07-.46,.11-.71,.11-1.27,0-2.3-1.03-2.3-2.3s1.03-2.3,2.3-2.3,2.3,1.03,2.3,2.3Z"/>
    <g>
      <path class="cls-1" d="M17.02,20.93l-3.45-3.45c-1.47,1.94-4.03,4.96-6.76,6.66h0s-.28,5.6-.28,5.6h0c4.3-1.98,8.43-6.39,10.49-8.81Z"/>
      <path class="cls-1" d="M13.57,17.48h0s-5.8-5.79-5.8-5.79c-.11,.06-.23,.11-.35,.14l-.61,12.31c2.73-1.7,5.29-4.73,6.76-6.66Z"/>
      <path class="cls-1" d="M26.55,30.44l-.57,.21-4.23,1.57c1.07-1.1,2.07-2.56,2.8-3.77l1.74,1.74,.26,.26Z"/>
      <path class="cls-1" d="M20.7,24.61h0s-3.68-3.68-3.68-3.68h0c-2.05,2.42-6.18,6.84-10.49,8.81l-.24,4.96c5.95-1.93,11.83-7.44,14.41-10.09Z"/>
      <path class="cls-1" d="M24.55,28.44h0s-3.84-3.84-3.84-3.84c-2.58,2.65-8.46,8.16-14.41,10.09h0s-.16,3.3-.16,3.3l15.62-5.79c1.08-1.1,2.07-2.56,2.8-3.77Z"/>
      <path class="cls-1" d="M30.51,32.21c0,.28-.05,.55-.15,.8-.22,.57-.68,1.05-1.29,1.28l-3.77,1.4-.11,.04-6.11,2.26-12.68,4.7c-1.14,.42-2.42-.17-2.85-1.31-.09-.25-.14-.51-.14-.77,0-.9,.55-1.75,1.44-2.08l1.39-.52,19.68-7.29,.74-.27,.85-.32c1.14-.42,2.42,.17,2.85,1.31,.09,.25,.14,.51,.14,.77Z"/>
    </g>
  </g>
  <g>
    <path class="cls-1" d="M39.89,12.36c-.45,.76-1.28,1.17-2.11,1.12-.13,0-.25-.02-.37-.05-.23-.05-.46-.14-.67-.27-1.09-.65-1.45-2.06-.8-3.15,.65-1.09,2.06-1.45,3.15-.8,1.09,.65,1.45,2.06,.8,3.15Z"/>
    <path class="cls-1" d="M44.34,39.2l-5.03-.93h0l-14.02-2.58,3.77-1.4c.62-.23,1.07-.71,1.29-1.28,.1-.25,.15-.52,.15-.8,0-.26-.04-.51-.14-.77-.42-1.14-1.71-1.73-2.85-1.31l-.85,.32-.74,.27,.05-.08,.57-.21-.26-.26,1.21-1.82,3.1-4.67,6.82-10.27c.12,.03,.25,.05,.37,.05l2.02,7.94h0s1.21,4.73,1.21,4.73l1.28,5.04,1.34,5.26,.7,2.74Z"/>
    <polygon class="cls-1" points="26.55 30.44 25.98 30.65 26.29 30.18 26.55 30.44"/>
    <path class="cls-1" d="M47.11,42.02c-.05,.26-.14,.51-.27,.73-.46,.77-1.37,1.22-2.31,1.05l-23.76-4.38c-.8-.15-1.42-.71-1.68-1.43l6.11-2.26,19.25,3.55,.89,.16c1.2,.22,2,1.38,1.78,2.58Z"/>
  </g>
  <line class="cls-1" x1="42.99" y1="21.03" x2="45.69" y2="22.01"/>
  <line class="cls-1" x1="15.87" y1="6.33" x2="14.8" y2="9.04"/>
  <line class="cls-1" x1="18.1" y1="42.49" x2="17.02" y2="45.2"/>
  <line class="cls-1" x1="16.24" y1="12.75" x2="18.88" y2="10.73"/>
  <line class="cls-1" x1="3.98" y1="25.87" x2="2.86" y2="23.34"/>
  <line class="cls-1" x1="42.64" y1="17.44" x2="46.03" y2="14.4"/>
  <line class="cls-1" x1="25.72" y1="43.1" x2="28.02" y2="46.29"/>
  <path class="cls-1" d="M39.84,34.08c-.98,.77-1.12,1.34-.48,2.01,.37,.39,.73,.67,1.36,.32,.56-.31,.83-.7,.74-1.27-.1-.58-.4-1.08-1.13-1.06-.13,0-.26,0-.38,0"/>
  <path class="cls-1" d="M35.35,29.44c-1.1,.87-1.26,1.51-.54,2.27,.42,.44,.82,.75,1.53,.36,.63-.35,.94-.79,.83-1.43-.11-.66-.46-1.22-1.28-1.19-.14,0-.29,0-.43,0"/>
  <path class="cls-1" d="M31.03,25.25c-.98,.77-1.12,1.34-.48,2.01,.37,.39,.73,.67,1.36,.32,.56-.31,.83-.7,.74-1.27-.1-.58-.4-1.08-1.13-1.06-.13,0-.26,0-.38,0"/>
  <path class="cls-1" d="M35.96,21.22c-.98,.77-1.12,1.34-.48,2.01,.37,.39,.73,.67,1.36,.32,.56-.31,.83-.7,.74-1.27-.1-.58-.4-1.08-1.13-1.06-.13,0-.26,0-.38,0"/>
  <path class="cls-1" d="M35.7,15.67c-1.14,.9-1.3,1.55-.55,2.34,.43,.45,.84,.77,1.57,.37,.65-.36,.97-.82,.85-1.47-.12-.68-.47-1.26-1.32-1.23-.15,0-.3,0-.45,0"/>
  <path class="cls-1" d="M31.03,34.5c-.98,.77-1.12,1.34-.48,2.01,.37,.39,.73,.67,1.36,.32,.56-.31,.83-.7,.74-1.27-.1-.58-.4-1.08-1.13-1.06-.13,0-.26,0-.38,0"/>
  <path class="cls-1" d="M39.84,26.2c-.98,.77-1.12,1.34-.48,2.01,.37,.39,.73,.67,1.36,.32,.56-.31,.83-.7,.74-1.27-.1-.58-.4-1.08-1.13-1.06-.13,0-.26,0-.38,0"/>
  <g>
    <line class="cls-1" x1="27.25" y1="14.78" x2="27.76" y2="15.77"/>
    <line class="cls-1" x1="28.43" y1="16.03" x2="29.48" y2="15.49"/>
    <line class="cls-1" x1="28.78" y1="17.72" x2="28.27" y2="16.73"/>
    <line class="cls-1" x1="27.6" y1="16.46" x2="26.55" y2="17.01"/>
  </g>
</svg>