<?xml version="1.0" encoding="UTF-8"?>
<svg id="Layer_3" data-name="Layer 3" xmlns="http://www.w3.org/2000/svg" viewBox="0 0 50 50">
  <defs>
    <style>
      .cls-1 {
        fill: none;
        stroke: #000;
        stroke-linecap: round;
        stroke-linejoin: round;
        stroke-width: 1.48px;
      }
    </style>
  </defs>
  <path class="cls-1" d="M20.11,50.27c-.18-.5-.05-1.09,.16-1.57s.49-.9,.65-1.41c.37-1.16-.72-1.62-.4-2.77,.24-.84,.89-1.41,1.06-2.29,.11-.57,0-1.14-.31-1.56s-.84-.36-1.11-.78c-.46-.71,.55-1.33,1.06-1.62,1.05-.61,2.01-1.34,3.03-1.98,.94-.59,1.1-.6,1.94-1.34s2.51-2.73,2.98-3.72c1.14-2.44,1.89-5.3,1.92-7.97s-.38-5.67-1.56-8.21c-3.05-6.58-11.16-7.45-16.71-4.41-3.52,1.92-5.6,8.46-5.02,12.1,.56,3.48,2.38,7.2,4.5,10.04,1.5,2.01,4.39,3.57,6.71,4.44"/>
  <path class="cls-1" d="M26.18,9.02c1.72-3.13,6.5-4.62,9.01-4.72,3.01-.12,7.41,1.55,9.64,5.24s1.84,9.56,.24,13.29c-.63,1.47-1.38,2.72-2.24,3.81-1.39,1.75-3.09,3.07-5.13,4.13-.69,.36-1.36,.87-2.14,.8-1.24-.12-3.18-1.39-4.3-1.93"/>
  <path class="cls-1" d="M35.6,31.56c-.37,.31-.42,.61-.61,.99-.15,.32-.53,.69,.03,.88,.21,.07,.94,.14,1.19,.08,.6-.14,.2-1.22-.06-1.42"/>
  <path class="cls-1" d="M35.51,34.05c-.37,.62-.63,1.48,0,2.01,.36,.31,1.12,.75,.73,1.3-.47,.67-1.2,1.05-1.34,1.96l.72,1c-.07,.65-1.27,1.24-.99,1.89,.37,.86,1.27,1.25,1.9,1.88,.23,.24,.28,.54,.03,.79-.79,.8-2.04,1.09-2.03,2.46"/>
  <path class="cls-1" d="M21.03,12.96s4.88,0,6.36,4.64"/>
  <line class="cls-1" x1="28.09" y1="20.1" x2="28.28" y2="21.43"/>
  <path class="cls-1" d="M36.53,8.14s5.61,.81,6.61,6.39"/>
  <path d="M26.48,3.5c-.06,.65-3.23,3.83-3.82,3.92-.35,.05-.64-.04-.86-.33-.21-.3-.25-.66,0-.91,1.15-1.15,2.27-2.35,3.53-3.37,.56-.45,1.1,0,1.15,.69Z"/>
  <path d="M8.75,48.74c-1.89-.03-2.89-1.06-2.87-2.98,.02-1.75,1.28-3.07,2.92-3.05,1.59,.02,3.14,1.61,3.09,3.19-.05,1.69-1.35,2.87-3.14,2.84Zm.14-1.3c.95-.1,1.57-.7,1.56-1.69,0-.93-.68-1.53-1.58-1.55-.98-.02-1.66,.52-1.67,1.59,0,1.06,.6,1.58,1.7,1.65Z"/>
  <path d="M4.4,37.02c.38-.05,2.88,2.25,2.79,2.49-.41,1.2-1.83,1.5-2.39,2.58-.92-.8-1.84-1.61-2.76-2.41,.81-.91,1.62-1.83,2.36-2.66Z"/>
</svg>