<?xml version="1.0" encoding="UTF-8"?>
<svg id="Layer_3" data-name="Layer 3" xmlns="http://www.w3.org/2000/svg" viewBox="0 0 50 50">
  <defs>
    <style>
      .cls-1 {
        fill: none;
        stroke: #000;
        stroke-linecap: round;
        stroke-linejoin: round;
        stroke-width: 1.34px;
      }
    </style>
  </defs>
  <path class="cls-1" d="M47.34,5.78l-3.31,13.9c-.76-.09-1.48-.24-2.15-.44-4.57-1.38-7-5.18-8.09-7.48-.52-1.1-.74-1.86-.74-1.86l14.28-4.11Z"/>
  <path class="cls-1" d="M7.03,34.23s1.15,2.29,5.17,2.07c4.02-.22,5.94-2.26,5.94-2.26"/>
  <line class="cls-1" x1="21.89" y1="37.01" x2="12.7" y2="47.12"/>
  <line class="cls-1" x1="10.3" y1="32.47" x2="12.29" y2="31.16"/>
  <line class="cls-1" x1="7.91" y1="31.22" x2="7.77" y2="28.39"/>
  <line class="cls-1" x1="5.22" y1="32.41" x2="3.02" y2="30.28"/>
  <line class="cls-1" x1="4.48" y1="34.97" x2="1.09" y2="34.67"/>
  <line class="cls-1" x1="4.85" y1="36.8" x2="2.17" y2="38.94"/>
  <line class="cls-1" x1="7.39" y1="37.88" x2="6.8" y2="40.54"/>
  <g>
    <path class="cls-1" d="M40.15,21.1l1.74-1.86c-1.2-.36-2.25-.89-3.17-1.52-4.2,1.2-7.06-.02-8.83-1.41l-3.22,3.74c2.41,1.21,6.7,2.38,13.48,1.05Z"/>
    <path class="cls-1" d="M37.03,24.44l3.11-3.34c-6.78,1.33-11.08,.16-13.48-1.05l-3.37,3.92c2.54,1.11,6.93,2.03,13.74,.47Z"/>
    <path class="cls-1" d="M38.71,17.72c-2.58-1.76-4.11-4.26-4.91-5.96l-3.91,4.55c1.76,1.4,4.63,2.61,8.83,1.41Z"/>
    <path class="cls-1" d="M16.91,31.42c.12,.46,1.65,5.99,7.9,6.12l4.29-4.6c-6.05,.77-9.93-.35-12.19-1.52Z"/>
    <path class="cls-1" d="M19.65,28.2l-2.74,3.19s0,.01,0,.03c2.27,1.17,6.14,2.28,12.19,1.52l3.6-3.86c-6.55,1.3-10.71,.24-13.06-.88Z"/>
    <path class="cls-1" d="M23.29,23.97l-3.64,4.23c2.35,1.12,6.51,2.18,13.06,.88l4.32-4.64c-6.81,1.56-11.2,.64-13.74-.47Z"/>
  </g>
</svg>