<?xml version="1.0" encoding="UTF-8"?>
<svg id="Layer_3" data-name="Layer 3" xmlns="http://www.w3.org/2000/svg" viewBox="0 0 50 50">
  <defs>
    <style>
      .cls-1 {
        stroke-width: 1.06px;
      }

      .cls-1, .cls-2 {
        fill: none;
        stroke: #000;
        stroke-linecap: round;
        stroke-linejoin: round;
      }

      .cls-2 {
        stroke-width: 1.49px;
      }
    </style>
  </defs>
  <polygon class="cls-2" points="22.45 19.39 18.09 17.11 13.74 19.4 14.56 14.55 11.03 11.11 15.91 10.4 18.08 5.98 20.26 10.4 25.14 11.1 21.62 14.54 22.45 19.39"/>
  <polygon class="cls-2" points="33.27 14.89 33.73 19.79 38.02 22.2 33.5 24.14 32.54 28.97 29.29 25.27 24.4 25.86 26.92 21.62 24.85 17.15 29.66 18.23 33.27 14.89"/>
  <polygon class="cls-2" points="14.54 21.44 11.98 25.65 14 30.14 9.2 29.01 5.55 32.31 5.15 27.41 .88 24.96 5.42 23.06 6.43 18.24 9.64 21.97 14.54 21.44"/>
  <path class="cls-2" d="M10.38,29.29s6.92,6.62,8.15,15.41"/>
  <line class="cls-2" x1="18.09" y1="17.75" x2="18.52" y2="36.35"/>
  <path class="cls-2" d="M29.29,25.27s-7.79,3.64-8.66,14.92"/>
  <g>
    <line class="cls-2" x1="39.39" y1="40.53" x2="40.84" y2="42.82"/>
    <line class="cls-2" x1="42.72" y1="43.44" x2="45.69" y2="42.17"/>
    <line class="cls-2" x1="43.7" y1="47.35" x2="42.25" y2="45.06"/>
    <line class="cls-2" x1="40.37" y1="44.44" x2="37.4" y2="45.71"/>
  </g>
  <g>
    <line class="cls-2" x1="6.14" y1="37.92" x2="5.02" y2="40.41"/>
    <line class="cls-2" x1="5.52" y1="42.1" x2="8.18" y2="43.29"/>
    <line class="cls-2" x1="2.81" y1="45.34" x2="3.93" y2="42.85"/>
    <line class="cls-2" x1="3.43" y1="41.16" x2=".77" y2="39.98"/>
  </g>
  <g>
    <line class="cls-2" x1="3.94" y1="11.2" x2="4.46" y2="12.2"/>
    <line class="cls-2" x1="5.14" y1="12.47" x2="6.21" y2="11.92"/>
    <line class="cls-2" x1="5.49" y1="14.19" x2="4.97" y2="13.18"/>
    <line class="cls-2" x1="4.29" y1="12.91" x2="3.22" y2="13.47"/>
  </g>
  <g>
    <line class="cls-2" x1="39.6" y1="30.97" x2="40.12" y2="31.97"/>
    <line class="cls-2" x1="40.8" y1="32.25" x2="41.87" y2="31.69"/>
    <line class="cls-2" x1="41.15" y1="33.96" x2="40.63" y2="32.96"/>
    <line class="cls-2" x1="39.95" y1="32.68" x2="38.88" y2="33.24"/>
  </g>
  <circle class="cls-2" cx="31.21" cy="38.3" r="1.57"/>
  <g>
    <g>
      <line class="cls-2" x1="42.67" y1="3.91" x2="42.67" y2="9.72"/>
      <line class="cls-2" x1="45.12" y1="12.2" x2="49.5" y2="12.2"/>
      <line class="cls-2" x1="42.67" y1="21.48" x2="42.67" y2="14.67"/>
      <line class="cls-2" x1="40.05" y1="12.2" x2="35.67" y2="12.2"/>
      <circle class="cls-2" cx="42.67" cy="12.2" r=".09"/>
    </g>
    <line class="cls-1" x1="41.02" y1="10.52" x2="39.27" y2="8.61"/>
    <line class="cls-1" x1="44.5" y1="10.52" x2="46.25" y2="8.61"/>
    <line class="cls-1" x1="40.84" y1="13.89" x2="39.1" y2="15.81"/>
    <line class="cls-1" x1="44.33" y1="13.89" x2="46.08" y2="15.81"/>
  </g>
  <line class="cls-1" x1="2.05" y1="18.89" x2=".31" y2="16.97"/>
  <line class="cls-1" x1="22.64" y1="7.11" x2="23.92" y2="4.85"/>
  <line class="cls-1" x1="13.84" y1="7.37" x2="12.34" y2="5.25"/>
</svg>