<?xml version="1.0" encoding="UTF-8"?>
<svg id="Layer_3" data-name="Layer 3" xmlns="http://www.w3.org/2000/svg" viewBox="0 0 50 50">
  <defs>
    <style>
      .cls-1 {
        stroke-miterlimit: 10;
        stroke-width: 1.51px;
      }

      .cls-1, .cls-2 {
        fill: none;
        stroke: #000;
      }

      .cls-2 {
        stroke-linecap: round;
        stroke-linejoin: round;
        stroke-width: 1.59px;
      }
    </style>
  </defs>
  <g>
    <path class="cls-1" d="M37.18,20.24c5.45,1.28,9.02,3.42,9.02,5.85,0,3.88-9.13,7.04-20.47,7.1-.12,0-.24,0-.36,0-3.43,0-6.67-.28-9.53-.79"/>
    <path class="cls-1" d="M27.69,19.03c1.84,.07,3.6,.22,5.27,.44"/>
    <path class="cls-1" d="M13.13,31.84c-5.2-1.29-8.58-3.39-8.58-5.75,0-3.63,7.98-6.63,18.29-7.05"/>
  </g>
  <path class="cls-1" d="M15.57,32.36c2.92,.53,6.26,.84,9.81,.84,.12,0,.24,0,.36,0,11.34-.06,20.47-3.22,20.47-7.1v4.23c-.56,.69-1.11,1.58-1.93,2.15-.43,.3-1.48,.9-1.48,1.43,0,.79,.09,1.36,.18,2.39,.2,2.27,.81,4.48-1.21,4.76-3.35,.46-1.63-4.18-3.46-5.1-.92-.46-3.21-.53-3.07,3.14,.05,1.21,.14,4.75-1.81,4.75s-2.22-2.3-2.43-3.71c-.14-.92-.19-3.15-1.48-3.26-1.52-.13-1.97,.95-1.98,2.14,0,1.16,.05,3.01-.75,3.93-.36,.41-1.17,.42-1.52,0-1.14-1.34-1.1-3.67-.94-5.32,.05-.57-.39-1.06-.95-1.07-1.09-.02-2.18-.08-3.24-.17-.48-.04-.9,.28-1.02,.74-.22,.84-.06,2.82-.67,3.25-.81,.57-1.61,.49-2.19-.56-.4-.73-.21-2.74-.22-2.84-.09-.72-.23-1.17-.82-1.29-.22-.05-.44-.1-.65-.15-.6-.14-1.26,.55-1.38,1.16-.2,1.09-.77,2.66-2.54,2.59-2.62-.1-2.26-3.83-2.19-5.37,.02-.43-.28-.81-.67-1-1.25-.61-2.35-1.25-3.24-1.82v-4.99c0,2.27,3.12,4.29,7.97,5.59"/>
  <path class="cls-1" d="M22.84,25.59V14.61s.21-1.22,2.49-1.36,2.35,1.24,2.35,1.24v11.11"/>
  <path class="cls-1" d="M25.38,2.23s-6.77,8.79,0,8.79,0-8.79,0-8.79Z"/>
  <path class="cls-2" d="M46.2,30.32v10.22c0,1.45-1.26,2.79-3.44,3.91-3.73,1.93-10.12,3.19-17.39,3.19-3.94,0-7.62-.37-10.76-1.02-6.03-1.24-10.06-3.5-10.06-6.08v-9.46c.89,.57,1.99,1.21,3.24,1.82,.39,.19,.68,.57,.67,1-.07,1.55-.43,5.28,2.19,5.37,1.77,.06,2.33-1.51,2.54-2.59,.11-.61,.77-1.3,1.38-1.16,.22,.05,.43,.1,.65,.15,.59,.12,.73,.57,.82,1.29,.01,.1-.18,2.11,.22,2.84,.58,1.05,1.38,1.13,2.19,.56,.61-.43,.45-2.4,.67-3.25,.12-.46,.54-.78,1.02-.74,1.06,.09,2.15,.15,3.24,.17,.57,.01,1.01,.5,.95,1.07-.16,1.65-.19,3.97,.94,5.32,.36,.42,1.16,.41,1.52,0,.8-.92,.75-2.77,.75-3.93,0-1.19,.45-2.27,1.98-2.14,1.28,.11,1.34,2.34,1.48,3.26,.21,1.41,.55,3.71,2.43,3.71s1.86-3.55,1.81-4.75c-.15-3.66,2.15-3.6,3.07-3.14,1.83,.92,.11,5.56,3.46,5.1,2.02-.28,1.41-2.48,1.21-4.76-.09-1.03-.17-1.59-.18-2.39,0-.53,1.04-1.13,1.48-1.43,.82-.58,1.37-1.46,1.93-2.15Z"/>
</svg>