<?xml version="1.0" encoding="UTF-8"?>
<svg id="Layer_3" data-name="Layer 3" xmlns="http://www.w3.org/2000/svg" viewBox="0 0 50 50">
  <defs>
    <style>
      .cls-1 {
        fill: none;
        stroke-width: 1.44px;
      }

      .cls-1, .cls-2, .cls-3 {
        stroke: #000;
        stroke-miterlimit: 10;
      }

      .cls-2, .cls-3 {
        stroke-width: .96px;
      }

      .cls-3 {
        stroke-linecap: round;
      }
    </style>
  </defs>
  <circle class="cls-1" cx="19.13" cy="18.02" r=".98"/>
  <circle class="cls-1" cx="38.16" cy="23.09" r=".98"/>
  <circle class="cls-1" cx="31.96" cy="7.26" r=".98"/>
  <circle class="cls-1" cx="47.18" cy="12.66" r=".98"/>
  <circle class="cls-1" cx="2.34" cy="29.7" r=".98"/>
  <circle class="cls-1" cx="20.1" cy="44.83" r=".98"/>
  <circle class="cls-1" cx="44.95" cy="39.84" r=".98"/>
  <circle class="cls-1" cx="20.91" cy="27.74" r=".98"/>
  <path class="cls-1" d="M4.29,23.22c.27,.03,.56,.06,.9,.09v1.5c-.31,.04-.6,.07-.88,.11q-.26,1.04-1.81,.87c-.04-.25-.09-.51-.15-.83-.28-.04-.57-.09-.92-.15v-1.5c.32-.04,.61-.07,.93-.11,.04-.28,.07-.53,.1-.77,1.33-.36,1.61-.25,1.82,.79Z"/>
  <path class="cls-1" d="M5.51,12.52c-.03,.33-.06,.58-.09,.88h-1.66c-.04-.29-.07-.56-.11-.87-.31-.04-.61-.07-.95-.11v-1.47c.31-.05,.6-.11,.93-.16,.04-.26,.09-.53,.14-.83h1.6c.05,.3,.1,.57,.16,.85,.29,.03,.56,.06,.91,.1v1.52c-.28,.03-.57,.06-.94,.1Z"/>
  <path class="cls-1" d="M19.2,35.39c-.03,.33-.06,.58-.09,.88h-1.66c-.04-.29-.07-.56-.11-.87-.31-.04-.61-.07-.95-.11v-1.47c.31-.05,.6-.11,.93-.16,.04-.26,.09-.53,.14-.83h1.6c.05,.3,.1,.57,.16,.85,.29,.03,.56,.06,.91,.1v1.52c-.28,.03-.57,.06-.94,.1Z"/>
  <path class="cls-1" d="M38.95,43.97c.71,.01,1.18-.19,1.04-.96h1.62c.05,.24,.11,.5,.18,.82,.28,.05,.56,.11,.91,.17v1.44c-.64,.04-1.28,.11-.95,1h-1.68c-.05-.25-.1-.51-.17-.83-.29-.06-.6-.13-.95-.2v-1.43Z"/>
  <path class="cls-1" d="M31.28,17.97c.71,.01,1.18-.19,1.04-.96h1.62c.05,.24,.11,.5,.18,.82,.28,.05,.56,.11,.91,.17v1.44c-.64,.04-1.28,.11-.95,1h-1.68c-.05-.25-.1-.51-.17-.83-.29-.06-.6-.13-.95-.2v-1.43Z"/>
  <path class="cls-1" d="M21.22,8.21h-1.55c-.06-.29-.11-.56-.17-.88-.29-.04-.58-.09-.91-.14v-1.45c.29-.04,.56-.08,.89-.13,.06-.25,.12-.52,.2-.85h1.56c.04,.25,.09,.51,.15,.82,.3,.05,.59,.11,.94,.17v1.45c-.3,.04-.59,.07-.92,.12-.05,.29-.1,.56-.17,.9Z"/>
  <path class="cls-3" d="M18.94,10.72c-.63,.22-1.19,.54-1.75,.59-1.11,.09-2.22,0-3.33,.02-.38,0-.75,.08-1.27,.14,.14,.53,.2,.93,.35,1.29,.45,1.06,.96,2.08,1.39,3.14,.95,2.33,.55,3.53-1.48,4.44-.91,.41-1.85,.69-2.77,1.05-.36,.14-.69,.37-1.22,.65,.49,.68,.87,1.25,1.28,1.8,.68,.9,1.45,1.73,2.06,2.7,.75,1.19,.67,2.29-.3,3.22-.98,.95-2.11,1.69-3.18,2.51-1.11,.85-1.14,1.07-.07,2,.85,.74,1.76,1.38,2.61,2.11,1.5,1.28,1.64,3.13,.33,4.7-.5,.6-1.15,1.03-1.7,1.57-.48,.47-.88,1.07-1.39,1.47-.39,.31-.89,.41-1.37,.61-.33-.91-.09-1.6,.34-2.18,.32-.44,.73-.8,1.13-1.15,.44-.39,.94-.71,1.38-1.1,1.2-1.07,1.18-1.76-.04-2.74-.89-.72-1.83-1.38-2.66-2.2-1.48-1.46-1.39-3.05,.21-4.35,.85-.69,1.75-1.26,2.62-1.92,1.19-.91,1.2-1.12,.22-2.36-.57-.72-1.19-1.39-1.74-2.12-.33-.43-.64-.91-.87-1.43-.54-1.23-.27-2.39,.79-2.97,1.02-.56,2.12-.95,3.2-1.36,1.75-.68,1.8-.8,.97-2.69-.48-1.08-1.01-2.12-1.39-3.25-.63-1.88,0-3.1,1.68-3.36,.76-.12,1.55-.05,2.33-.05,.5,0,1.03,.14,1.49,0,.95-.29,1.52,.22,2.16,1.24"/>
  <path class="cls-2" d="M37.76,2.67c.87,1.15,.61,2.08,.11,2.99-.39,.7-.89,1.35-1.25,2.06-.58,1.17-.3,1.64,1.07,1.85,1.08,.16,2.19,.23,3.26,.42,2.52,.43,3.19,1.82,1.87,3.85-.61,.94-1.26,1.86-1.9,2.79-.43,.62-.26,1.04,.5,1.29,.84,.26,1.67,.54,2.5,.83,.51,.18,1.04,.35,1.52,.58,1.63,.8,1.94,2.03,.74,3.31-.9,.95-1.95,1.78-2.9,2.69-.77,.73-.76,.91,.11,1.53,.79,.57,1.63,1.09,2.43,1.65,.34,.24,.68,.48,.97,.77,1.24,1.18,1.14,2.37-.37,3.23-1.48,.83-3.03,1.57-4.61,2.22-.4,.17-1.04-.16-1.72-.49,.49-.42,.91-.93,1.47-1.23,1-.54,2.08-.93,3.12-1.41,.42-.2,.81-.46,1.42-.81-.87-.62-1.58-1.12-2.29-1.63-.7-.5-1.45-.95-2.08-1.51-.98-.87-1.09-1.81-.24-2.79,.78-.9,1.74-1.65,2.6-2.48,.39-.37,.74-.78,1.25-1.31-.78-.32-1.37-.59-1.98-.8-.88-.31-1.8-.55-2.66-.9-1.8-.72-2.23-1.78-1.33-3.4,.59-1.05,1.34-2.01,1.99-3.03,.6-.93,.52-1.13-.64-1.33-1.17-.21-2.36-.31-3.53-.48-2.12-.31-3.04-1.65-2.36-3.54,.25-.68,.72-1.3,1.04-1.96,.27-.55,.39-1.17,.71-1.69,.27-.44,.72-.78,1.18-1.26Z"/>
  <path class="cls-2" d="M32.77,35.81c-.85-.46-1.44-.8-2.05-1.11-.77-.4-1.59-.73-2.33-1.18-1.4-.84-1.65-1.78-.75-3.08,.61-.87,1.4-1.63,2.1-2.45,.31-.37,.59-.75,1.06-1.34-1.36-.22-2.48-.4-3.61-.58-.45-.07-.91-.11-1.35-.21-1.61-.36-2.39-1.52-1.89-2.99,.25-.74,.74-1.41,1.1-2.12,.29-.58,.5-1.19,.86-1.73,.29-.43,.74-.77,1.15-1.19,.72,.69,.72,1.39,.44,2.06-.25,.6-.63,1.15-.96,1.72-.25,.42-.55,.82-.76,1.25-.47,.96-.25,1.35,.86,1.52,1.2,.19,2.42,.3,3.61,.54,2.14,.43,2.7,1.8,1.41,3.43-.74,.93-1.57,1.8-2.38,2.68-.53,.58-.42,.99,.31,1.31,.77,.35,1.52,.71,2.27,1.1,.51,.26,1.02,.52,1.47,.85,1.32,.96,1.31,2.19-.08,3.06-.88,.55-1.86,.97-2.81,1.41q-1.94,.91-.66,2.52c.61,.77,1.26,1.53,1.74,2.37,.89,1.56,.25,2.7-1.64,2.87-1.61,.15-3.23,.21-4.84,.17-.48-.01-.95-.51-1.58-.88,2.16-1.41,4.52-.43,6.8-1-.4-.59-.74-1.1-1.1-1.6-.58-.79-1.24-1.54-1.75-2.37-.64-1.05-.45-1.89,.61-2.59,.79-.52,1.69-.9,2.54-1.34,.63-.32,1.27-.64,2.19-1.1Z"/>
</svg>