<?xml version="1.0" encoding="UTF-8"?>
<svg id="Layer_3" data-name="Layer 3" xmlns="http://www.w3.org/2000/svg" viewBox="0 0 50 50">
  <defs>
    <style>
      .cls-1 {
        stroke-width: 5.77px;
      }

      .cls-1, .cls-2 {
        fill: none;
        stroke: #000;
        stroke-linecap: round;
        stroke-linejoin: round;
      }

      .cls-2 {
        stroke-width: 2.88px;
      }
    </style>
  </defs>
  <path class="cls-2" d="M47.75,13.84v2.61c0,1.24-.43,2.39-1.15,3.31-.99,1.26-2.52,2.07-4.23,2.07H7.63c-1.7,0-3.23-.8-4.21-2.04-.73-.92-1.17-2.08-1.17-3.34v-2.61c0-2.96,2.42-5.38,5.38-5.38h2.51v4.59c0,.81,.66,1.46,1.46,1.46h2.33c.81,0,1.46-.66,1.46-1.46v-4.59h18.12v4.59c0,.81,.66,1.46,1.47,1.46h2.33c.81,0,1.47-.66,1.47-1.46v-4.59h3.62c2.96,0,5.38,2.42,5.38,5.38Z"/>
  <path class="cls-2" d="M46.61,19.76v20.44c0,2.96-2.42,5.38-5.38,5.38H8.79c-2.96,0-5.38-2.42-5.38-5.38V19.79c.99,1.24,2.51,2.04,4.21,2.04H42.38c1.71,0,3.25-.81,4.23-2.07Z"/>
  <path class="cls-2" d="M11.6,2.97h2.33c.81,0,1.46,.66,1.46,1.46V13.05c0,.81-.66,1.46-1.46,1.46h-2.33c-.81,0-1.47-.66-1.47-1.47V4.43c0-.81,.66-1.46,1.46-1.46Z"/>
  <path class="cls-2" d="M34.97,2.97h2.33c.81,0,1.46,.66,1.46,1.46V13.04c0,.81-.66,1.47-1.47,1.47h-2.33c-.81,0-1.47-.66-1.47-1.47V4.44c0-.81,.66-1.47,1.47-1.47Z"/>
  <path class="cls-2" d="M46.61,36.35s-2.22,1.7-6.12,1.52c0,0-.39,6.99-3.84,7.71"/>
  <polyline class="cls-1" points="26.22 30.63 30.66 35.93 34.76 30.63"/>
</svg>