<?xml version="1.0" encoding="UTF-8"?>
<svg id="Layer_3" data-name="Layer 3" xmlns="http://www.w3.org/2000/svg" viewBox="0 0 50 50">
  <defs>
    <style>
      .cls-1 {
        stroke-width: 2.03px;
      }

      .cls-1, .cls-2, .cls-3 {
        fill: none;
        stroke: #000;
        stroke-linecap: round;
        stroke-linejoin: round;
      }

      .cls-2 {
        stroke-width: 1.87px;
      }

      .cls-3 {
        stroke-width: 2.81px;
      }
    </style>
  </defs>
  <path class="cls-3" d="M46.04,6.53l-3.09,13.01c-.71-.08-1.38-.22-2.01-.41-4.28-1.29-6.55-4.84-7.57-7-.49-1.03-.69-1.74-.69-1.74l13.36-3.85Z"/>
  <path class="cls-3" d="M8.33,33.15s1.08,2.14,4.84,1.94c3.76-.21,5.56-2.12,5.56-2.12"/>
  <line class="cls-3" x1="22.23" y1="35.75" x2="13.63" y2="45.21"/>
  <line class="cls-1" x1="10.44" y1="30.45" x2="12.37" y2="29.07"/>
  <line class="cls-1" x1="8.1" y1="29.1" x2="7.94" y2="26.1"/>
  <line class="cls-1" x1="5.49" y1="30.34" x2="3.32" y2="28.06"/>
  <line class="cls-1" x1="4.78" y1="33.05" x2="1.48" y2="32.7"/>
  <line class="cls-1" x1="5.17" y1="35" x2="2.57" y2="37.25"/>
  <line class="cls-1" x1="7.64" y1="36.16" x2="7.09" y2="38.98"/>
  <g>
    <path class="cls-2" d="M39.31,20.86l1.63-1.74c-1.12-.34-2.11-.84-2.97-1.42-3.93,1.12-6.61-.02-8.26-1.32l-3.01,3.5c2.25,1.13,6.27,2.23,12.62,.99Z"/>
    <path class="cls-2" d="M36.4,23.99l2.91-3.12c-6.35,1.24-10.36,.15-12.62-.99l-3.16,3.67c2.38,1.04,6.49,1.9,12.86,.44Z"/>
    <path class="cls-2" d="M37.97,17.7c-2.41-1.64-3.85-3.99-4.6-5.58l-3.66,4.26c1.65,1.31,4.33,2.44,8.26,1.32Z"/>
    <path class="cls-2" d="M17.57,30.52c.11,.43,1.54,5.61,7.39,5.72l4.01-4.31c-5.66,.72-9.29-.33-11.41-1.42Z"/>
    <path class="cls-2" d="M20.13,27.51l-2.57,2.98s0,.01,0,.03c2.12,1.09,5.75,2.14,11.41,1.42l3.37-3.61c-6.13,1.21-10.02,.23-12.22-.82Z"/>
    <path class="cls-2" d="M23.54,23.55l-3.4,3.96c2.2,1.05,6.09,2.04,12.22,.82l4.05-4.34c-6.37,1.46-10.48,.6-12.86-.44Z"/>
  </g>
</svg>