<?xml version="1.0" encoding="UTF-8"?>
<svg id="Layer_3" data-name="Layer 3" xmlns="http://www.w3.org/2000/svg" viewBox="0 0 50 50">
  <defs>
    <style>
      .cls-1 {
        fill: none;
        stroke: #000;
        stroke-linecap: round;
        stroke-linejoin: round;
        stroke-width: 2.81px;
      }
    </style>
  </defs>
  <polygon class="cls-1" points="22.71 19.42 18.63 17.28 14.55 19.42 15.33 14.88 12.02 11.67 16.58 11 18.62 6.87 20.66 11 25.22 11.66 21.92 14.88 22.71 19.42"/>
  <polygon class="cls-1" points="32.83 15.2 33.25 19.79 37.28 22.04 33.04 23.86 32.15 28.38 29.11 24.92 24.53 25.46 26.88 21.5 24.95 17.32 29.45 18.33 32.83 15.2"/>
  <polygon class="cls-1" points="15.3 21.33 12.91 25.27 14.8 29.47 10.31 28.41 6.9 31.5 6.52 26.91 2.52 24.62 6.77 22.84 7.72 18.33 10.72 21.83 15.3 21.33"/>
  <path class="cls-1" d="M11.41,28.67s6.47,6.2,7.62,14.42"/>
  <line class="cls-1" x1="18.62" y1="17.88" x2="19.03" y2="35.28"/>
  <path class="cls-1" d="M29.11,24.92s-7.28,3.41-8.11,13.96"/>
  <g>
    <line class="cls-1" x1="38.55" y1="39.19" x2="39.91" y2="41.33"/>
    <line class="cls-1" x1="41.67" y1="41.91" x2="44.44" y2="40.73"/>
    <line class="cls-1" x1="42.59" y1="45.57" x2="41.23" y2="43.43"/>
    <line class="cls-1" x1="39.47" y1="42.85" x2="36.7" y2="44.03"/>
  </g>
  <g>
    <line class="cls-1" x1="7.44" y1="36.75" x2="6.4" y2="39.08"/>
    <line class="cls-1" x1="6.87" y1="40.66" x2="9.35" y2="41.77"/>
    <line class="cls-1" x1="4.33" y1="43.69" x2="5.38" y2="41.36"/>
    <line class="cls-1" x1="4.91" y1="39.78" x2="2.42" y2="38.67"/>
  </g>
  <g>
    <line class="cls-1" x1="5.38" y1="11.75" x2="5.87" y2="12.69"/>
    <line class="cls-1" x1="6.51" y1="12.94" x2="7.51" y2="12.42"/>
    <line class="cls-1" x1="6.84" y1="14.55" x2="6.35" y2="13.61"/>
    <line class="cls-1" x1="5.71" y1="13.35" x2="4.71" y2="13.87"/>
  </g>
  <g>
    <line class="cls-1" x1="38.75" y1="30.25" x2="39.23" y2="31.19"/>
    <line class="cls-1" x1="39.87" y1="31.44" x2="40.87" y2="30.92"/>
    <line class="cls-1" x1="40.2" y1="33.05" x2="39.71" y2="32.11"/>
    <line class="cls-1" x1="39.08" y1="31.85" x2="38.08" y2="32.37"/>
  </g>
  <circle class="cls-1" cx="30.9" cy="37.1" r="1.47"/>
  <g>
    <g>
      <line class="cls-1" x1="41.63" y1="4.93" x2="41.63" y2="10.36"/>
      <line class="cls-1" x1="43.92" y1="12.68" x2="48.01" y2="12.68"/>
      <line class="cls-1" x1="41.63" y1="21.37" x2="41.63" y2="15"/>
      <line class="cls-1" x1="39.17" y1="12.68" x2="35.08" y2="12.68"/>
      <circle class="cls-1" cx="41.63" cy="12.68" r=".08"/>
    </g>
    <line class="cls-1" x1="40.08" y1="11.12" x2="38.44" y2="9.32"/>
    <line class="cls-1" x1="43.34" y1="11.12" x2="44.97" y2="9.32"/>
    <line class="cls-1" x1="39.91" y1="14.27" x2="38.28" y2="16.06"/>
    <line class="cls-1" x1="43.18" y1="14.27" x2="44.81" y2="16.06"/>
  </g>
  <line class="cls-1" x1="3.62" y1="18.95" x2="1.99" y2="17.15"/>
  <line class="cls-1" x1="22.89" y1="7.93" x2="24.08" y2="5.81"/>
  <line class="cls-1" x1="14.65" y1="8.16" x2="13.24" y2="6.18"/>
</svg>