<?xml version="1.0" encoding="UTF-8"?>
<svg id="Layer_1" data-name="Layer 1" xmlns="http://www.w3.org/2000/svg" viewBox="0 0 393.94 271.72">
  <defs>
    <style>
      .cls-1 {
        stroke-width: 5px;
      }

      .cls-1, .cls-2, .cls-3, .cls-4, .cls-5 {
        stroke: #000;
        stroke-miterlimit: 10;
      }

      .cls-1, .cls-6 {
        fill: #fff;
      }

      .cls-2 {
        stroke-width: 3px;
      }

      .cls-2, .cls-3, .cls-4, .cls-5 {
        stroke-linecap: round;
      }

      .cls-2, .cls-3, .cls-5 {
        fill: none;
      }

      .cls-7 {
        fill: #e8e8e8;
      }

      .cls-8 {
        fill: #a0afbb;
      }

      .cls-9, .cls-4 {
        fill: #b5c4cf;
      }

      .cls-5 {
        stroke-width: 2px;
      }
    </style>
  </defs>
  <rect class="cls-1" x="11.67" y="103.58" width="365.66" height="155.34"/>
  <g>
    <path d="M299.94,157.66c-1.38-3.41-1.47-6.76-1.15-10.14,.08-.8,.23-1.61,.46-2.39,.31-1.03,.9-1.81,2.14-1.54,1.27,.28,2.37,.85,2.28,2.39-.06,.92-.34,1.82-.55,2.72-.55,2.39-.47,4.74,.45,7.02,.88,2.2,2.61,3.49,4.9,3.62,2.18,.12,3.7-1.19,4.61-3.13,.71-1.52,1.34-3.08,2-4.63,1.53-3.56,3.9-3.99,6.44-1.04,2.8,3.24,3.89,7.23,4.44,11.36,.32,2.41,.44,4.84,.65,7.36,3.89-4.15,7.71-8.22,11.82-12.61-1.61-4.53,1.5-8.27,4.96-11.58,1.77-1.69,4.19-3.08,6.55-3.69,4.72-1.23,9.37,2.5,10.13,7.89,.43,3.02,.4,6.1,.58,9.4,1.74-.23,3.78-.49,5.82-.77,.46-.06,.93-.23,1.37-.19,.4,.04,.78,.32,1.17,.49-.25,.35-.43,.91-.76,1.02-1.76,.58-3.52,1.27-5.34,1.5-2.09,.26-3.11,1.03-3.69,3.19-1.06,3.95-3.11,7.5-5.85,10.59-.23,.26-.46,.53-.71,.76-3.83,3.65-7.19,3.05-9.53-1.67-2.05-4.13-2.2-8.61-2.46-13.08-.04-.68-.29-1.35-.44-2.02-.18-.05-.37-.09-.55-.14-1.85,2.04-3.78,4.02-5.54,6.14-1.67,2.01-3.07,4.24-4.75,6.24-2.08,2.48-2.52,5.35-2.68,8.43-.53,10.56-1.07,21.16-4.24,31.34-1.09,3.51-2.72,6.92-4.57,10.1-1.78,3.05-4.62,5.14-8.42,4.28-4-.9-5.8-4.04-6.5-7.81-.91-4.96,.19-9.72,1.81-14.36,3.7-10.62,9.8-19.84,16.71-28.59,.59-.74,1.09-1.89,.99-2.77-.59-4.94-1.34-9.87-2.12-14.79-.13-.82-.63-1.58-1.15-2.82-.58,1.01-.95,1.6-1.27,2.22-.64,1.23-1.12,2.58-1.91,3.7-3.22,4.54-10.39,4.95-14.23,.88-.4-.42-.76-.88-1.23-1.42-4.44,3.2-8.59,1.83-12.63-.97-.91-.63-1.91-1.12-2.78-1.78-1.37-1.03-2.16-.54-2.74,.86-.68,1.67-1.32,3.35-2.1,4.97-1.23,2.55-2.41,5.16-3.9,7.56-2.5,4.01-6.82,5.45-11.2,4-3.94-1.29-6.53-5.35-6.3-9.83,.03-.56,0-1.12,0-1.39-2.64,.96-5.28,2.13-8.03,2.88-4.76,1.3-8.75-.14-11.65-4.15-1.56-2.16-2.86-4.51-4.29-6.76-2.61-4.09-4.37-4.25-6.96-.15-2.07,3.27-3.61,6.87-5.38,10.33-1.37,2.68-3.62,3.59-5.78,2.02-.96-.7-1.49-2.1-2.02-3.27-.34-.75-.33-1.66-.53-2.76-1.64,1.96-3.11,3.73-4.59,5.49-2.97,3.53-6.57,6.22-10.8,8.05-.37,.16-.74,.35-1.12,.48-5.64,1.94-9.85-.75-10.19-6.71-.16-2.77,.18-5.57,.26-8.35,.03-1.08,0-2.16,0-3.37-.61,.06-.94,.16-1.26,.11-.67-.09-1.77-.09-1.89-.43-.24-.64-.13-1.61,.21-2.23,.65-1.16,3.7-2,5.09-1.58,1.83,.56,2.07,2.11,2.03,3.65-.06,2.5-.39,4.98-.46,7.48-.06,1.96-.02,3.95,.19,5.9,.24,2.15,1.51,2.91,3.68,2.64,3.34-.4,6.3-1.77,8.79-3.91,3.08-2.64,5.97-5.51,8.84-8.38,.5-.5,.72-1.54,.65-2.29-.25-2.72-.68-5.42-1.04-8.12-.05-.35-.07-.69-.09-1.04-.08-1.36,.37-2.54,1.77-2.82,1.48-.29,2.28,.73,2.48,2.08,.39,2.64,.6,5.31,1.03,7.94,.18,1.07,.75,2.07,1.14,3.1,.84-.77,1.81-1.44,2.51-2.33,1.33-1.68,2.31-3.65,3.78-5.18,3.5-3.63,7.19-3.62,10.8-.09,1.11,1.09,2.05,2.37,2.95,3.65,.8,1.13,1.47,2.36,2.16,3.57,4.05,7.11,12.33,8.1,18.08,2.12,.38-.4,.57-.99,.82-1.51,2.44-5.03,6.13-8.7,11.52-10.48,.87-.29,1.8-.4,3.04-.66-.96-.83-1.74-1.53-2.55-2.21-12.49-10.67-21.43-23.74-26.47-39.41-2.77-8.61-4.5-17.4-4.8-26.48-.55-17.16,7.47-29.26,21.92-37.61,8.6-4.97,17.77-8.06,27.84-7.57,6.78,.33,13.06,2.28,18.06,7.14,4.76,4.64,6.52,10.57,6.8,17.05,.35,8.03-1.47,15.69-3.99,23.23-7.34,21.92-16.19,43.26-24.77,64.71-1.75,4.37-1.33,5.87,2.33,8.85,3.19,2.59,6.63,3.64,10.89,2.52Zm-17.93-8.93c.44-.95,.64-1.3,.78-1.67,2.96-7.44,5.86-14.91,8.87-22.33,6.64-16.36,12.97-32.83,18.06-49.74,2.08-6.9,3.06-13.92,1.37-21.14-2.12-9.02-8.97-14.91-18.18-15.58-11.22-.81-21.2,2.42-30.3,8.81-8.83,6.21-14.44,14.37-15.97,25.29-1.3,9.24-.21,18.25,2.2,27.09,4.08,14.96,11.4,28.17,22.37,39.22,3.38,3.41,7.02,6.55,10.8,10.05Zm39.98,32.35c-.11-.05-.23-.09-.34-.14-.19,.2-.4,.37-.55,.6-3.36,5.14-6.93,10.16-9.99,15.48-2.72,4.73-4.66,9.87-5.1,15.41-.21,2.63-.06,5.26,1.91,7.35,1.7,1.81,3.76,1.8,5.15-.24,1.23-1.81,2.28-3.78,3.12-5.8,2.96-7.14,4.15-14.7,4.91-22.34,.34-3.43,.61-6.87,.9-10.31Zm-46.26-30.22c-7.49-.04-13.86,8.85-11.42,15.93,.79,2.29,2.53,3.47,4.91,3.36,1.84-.08,3.32-.87,4.11-2.5,1.99-4.12,3.89-8.28,5.77-12.46,1.56-3.46,.9-3.9-2.86-4.33-.17-.02-.35,0-.52,0Zm81.66,8.13c0-2.95,.14-5.67-.04-8.37-.21-3.24-1.9-5.21-4.36-5.52-2.91-.36-7.17,2.05-7.99,4.51,2.69-.85,3.53-.67,4.74,1.09-3.59,.53-3.29,3.63-4.28,6.12,3.77,1.57,7.49,2.15,11.92,2.17Zm-12.33,2.66c-.14,3.59-.05,7.39,1.89,10.88,.88,1.58,1.88,1.9,3.1,.88,3.48-2.92,5.03-6.89,6.06-11.05-3.75-.24-7.25-.46-11.05-.71Z"/>
    <path d="M67.3,128.42c.8,.36,1.11,.56,1.45,.64,8.68,2.16,12.94,8.28,14.3,16.61,.77,4.72,.96,9.55,1.15,14.35,.24,5.99,.07,12,.39,17.98,.17,3.27,1.03,10.35,3.25,12.77,5.49,5.96,17.18,8.28,22.91,9.26,.55,.09,1.23,.14,1.59,.48,.6,.57,1.37,1.35,1.4,2.06,.05,1.19-1.06,1.35-2.07,1.26-6.69-.61-23.17-3.74-28.16-10.11-2.31-2.95-3.83-10.58-4.05-14.33-.53-8.85-.59-17.72-.89-26.59-.14-4.19-.65-8.32-2.48-12.2-2.62-5.56-7.09-8.15-13.09-8.35-1.62-.05-3.24,.06-4.86,.04-1.32-.01-2.34-.52-2.51-1.98-.16-1.39,.38-2.44,1.75-2.95,2.86-1.08,5.74-2.08,8.56-3.24,21.93-9.1,40.13-23.1,54.4-42.08,5.3-7.06,9.64-14.72,11.6-23.48,.96-4.27,.92-8.55-.55-12.74-1.71-4.89-4.93-6.84-10.07-6.33-6.14,.61-11.52,3.03-16.44,6.61-12.38,9-22.22,20.39-30.77,32.95-11.02,16.18-19.1,33.86-25.94,52.12-8.46,22.56-15.43,45.58-20.7,69.09-.69,3.07-.56,6.33-.96,9.48-.25,1.9-.68,3.79-1.25,5.62-.42,1.34-1.47,2.22-3.02,1.95-1.47-.26-2.44-1.26-2.38-2.71,.16-3.79,.31-7.6,.82-11.35,2.12-15.58,4.22-31.16,6.6-46.7,2.94-19.12,7.31-37.95,12.18-56.67,3.28-12.6,6.27-25.28,9.38-37.93,.22-.91,.31-1.85,.49-2.76,.26-1.27,.65-2.65,2.24-2.47,1.43,.16,2.06,1.37,1.96,2.76-.29,3.78-.19,7.67-1.07,11.31-3.77,15.5-8.24,30.85-11.72,46.42-4.11,18.37-7.46,36.91-11.12,55.38-.16,.81-.11,1.66-.16,2.49,.23,.04,.45,.08,.68,.12,.32-.95,.67-1.88,.95-2.84,5.88-20.24,12.04-40.38,20.52-59.72,7.15-16.29,15.58-31.81,26.78-45.71,8.13-10.09,17.24-19.1,28.64-25.47,4.9-2.74,9.94-5.2,15.8-5.22,8.72-.03,14.3,5.13,14.96,13.86,.49,6.47-1,12.55-3.56,18.37-6.11,13.89-15.41,25.45-26.63,35.53-6.75,6.06-13.93,11.6-21.88,15.97-5.11,2.81-10.58,4.95-15.9,7.38-.67,.31-1.35,.58-2.51,1.08Z"/>
    <path d="M130.92,166.19c2.06-3.02,4.06-6.08,6.19-9.04,1.12-1.56,2.64-2.63,4.71-2.47,2.68,.22,4.12,1.36,4.87,3.97,.45,1.56,.71,3.17,1.09,4.75,.19,.77,.46,1.51,.85,2.75,.76-.96,1.24-1.55,1.71-2.16,1.64-2.17,3.05-4.57,4.94-6.49,4.98-5.08,12.4-3.71,15.09,2.86,1.81,4.43,3.15,6.11,9.33,3.41,1.54-.67,2.99-1.55,4.52-2.23,.38-.17,.93,.03,1.41,.07-.19,.42-.27,.97-.59,1.24-2.57,2.23-5.31,4.16-8.8,4.63-3.68,.49-6.44-.92-8.26-4.19-.67-1.22-1.25-2.5-2.03-3.64-1.65-2.43-3.69-2.83-5.86-.9-1.67,1.49-3.05,3.32-4.42,5.1-1.31,1.69-2.33,3.63-3.71,5.26-2.31,2.73-5.38,2.4-6.79-.86-1.05-2.42-1.52-5.09-2.29-7.64-.17-.56-.53-1.06-.8-1.59-.54,.37-1.26,.62-1.58,1.13-2.63,4.24-5.2,8.53-7.77,12.81-1.29,2.16-3.16,2.81-4.93,1.66-1.33-.86-1.58-2.23-1.58-3.67-.01-3.54,0-7.09,0-10.55-2.52,2.22-5.08,4.64-7.8,6.86-3.7,3.03-7.8,5.23-12.75,5.37-8.17,.24-13.56-6.22-11.53-14.11,1.59-6.17,4.32-11.77,9.48-15.86,1.58-1.25,3.31-1.95,5.34-1.36,1.95,.57,2.81,2,2.39,4-.97,4.51-3.55,7.87-7.4,10.32-1.17,.75-2.35,1.49-3.46,2.33-1.94,1.48-2.37,3.52-1.85,5.78,.54,2.36,1.81,4.13,4.3,4.77,3.94,1.01,7.76,.3,11.08-1.7,4.11-2.47,7.9-5.48,11.75-8.35,.48-.36,.67-1.3,.72-1.99,.13-1.85,.03-3.72,.16-5.57,.08-1.13,.14-2.47,1.77-2.54,1.7-.08,2.89,.97,2.94,2.75,.05,1.91-.07,3.83-.18,5.74-.18,3.1-.4,6.21-.61,9.31,.12,.01,.24,.02,.36,.03Zm-29.39-13.14c4.07-1.09,6.74-4.64,5.72-7.39-2.62,1.82-4.34,4.24-5.72,7.39Z"/>
    <path d="M188.18,142.19c.89,.16,1.64,.14,2.23,.45,.69,.36,1.57,.92,1.74,1.56,.12,.47-.66,1.42-1.26,1.77-1.58,.9-3.34,.96-5.01,.25-.6-.26-1.34-1-1.36-1.55-.03-.55,.65-1.32,1.22-1.66,.76-.45,1.72-.59,2.44-.81Z"/>
    <path class="cls-6" d="M321.98,181.08c-.3,3.44-.56,6.88-.9,10.31-.76,7.64-1.95,15.2-4.91,22.34-.84,2.02-1.89,3.99-3.12,5.8-1.39,2.04-3.44,2.05-5.15,.24-1.97-2.09-2.12-4.72-1.91-7.35,.44-5.54,2.39-10.68,5.1-15.41,3.05-5.32,6.63-10.33,9.99-15.48,.15-.22,.37-.4,.55-.6,.11,.05,.23,.09,.34,.14Z"/>
    <path class="cls-6" d="M275.72,150.86c.17,0,.35-.02,.52,0,3.76,.42,4.41,.87,2.86,4.33-1.88,4.17-3.77,8.34-5.77,12.46-.79,1.63-2.28,2.42-4.11,2.5-2.38,.11-4.12-1.07-4.91-3.36-2.44-7.07,3.93-15.97,11.42-15.93Z"/>
    <path class="cls-6" d="M357.38,158.99c-4.43-.01-8.16-.6-11.92-2.17,.99-2.49,.68-5.59,4.28-6.12-1.2-1.76-2.05-1.94-4.74-1.09,.82-2.46,5.08-4.87,7.99-4.51,2.46,.3,4.16,2.28,4.36,5.52,.17,2.7,.04,5.42,.04,8.37Z"/>
    <path class="cls-6" d="M345.05,161.64c3.81,.24,7.3,.47,11.05,.71-1.03,4.16-2.59,8.13-6.06,11.05-1.22,1.02-2.22,.7-3.1-.88-1.95-3.48-2.03-7.29-1.89-10.88Z"/>
    <path class="cls-6" d="M101.53,153.06c1.39-3.16,3.11-5.57,5.72-7.39,1.02,2.76-1.65,6.3-5.72,7.39Z"/>
  </g>
  <g>
    <g>
      <path d="M145.19,181.33c.15,0,.27-.01,.44-.02,.03,.3,.06,.58,.1,.95,.47-.64,1.03-1.01,1.77-1.06,.77-.05,1.36,.23,1.67,1.02,.53-.74,1.22-1.09,2.1-1.02,.67,.05,1.19,.52,1.27,1.18,.02,.15,.02,.31,.02,.46,0,1.06,0,2.12,0,3.2h-.56c0-.76,0-1.51,0-2.26,0-.32,.01-.64,0-.96-.04-.88-.68-1.32-1.54-1.06-.74,.23-1.27,.92-1.3,1.72-.02,.71,0,1.42,0,2.14,0,.14,0,.27,0,.43h-.57c0-.89,0-1.77,0-2.64,0-.18,0-.36,0-.54-.02-.88-.65-1.35-1.5-1.12-.79,.21-1.33,.91-1.34,1.77-.01,.84,0,1.67,0,2.53h-.55v-4.71Z"/>
      <path d="M164.03,181.31h.48v1.01c.6-.68,1.23-1.09,2.06-1.13,.84-.03,1.53,.27,2.04,.94,.78,1.03,.65,2.56-.27,3.4-1.05,.95-2.49,.83-3.75-.36v3.14h-.55v-7Zm2.58,.37c-1.14-.03-2.03,.82-2.05,1.97-.02,1.12,.79,1.99,1.89,2.03,1.12,.04,2.05-.84,2.09-1.95,.03-1.12-.82-2.02-1.93-2.05Z"/>
      <path d="M202.5,186.06h-.53v-.93c-.61,.64-1.24,1.03-2.06,1.04-.8,0-1.48-.27-1.97-.91-.77-.99-.65-2.59,.24-3.41,1.05-.97,2.44-.84,3.77,.38,.03-.3,.05-.58,.08-.88h.47v4.71Zm-.55-2.4c.14-1.03-.87-2-1.96-2-1.14,0-1.98,.84-1.98,1.99,0,1.11,.88,2.01,1.98,2.02,1.18,.01,1.96-.79,1.97-2.01Z"/>
      <path d="M175.12,182.97c-1.34,.52-2.66,1.03-3.98,1.54,.37,1.17,1.76,1.47,3.13,.68,.08,.11,.17,.22,.26,.34-.74,.72-2.04,.84-2.98,.31-.95-.55-1.41-1.68-1.13-2.78,.28-1.07,1.27-1.85,2.4-1.88,1.08-.03,1.93,.62,2.3,1.79Zm-.68-.23c-.54-1.03-1.52-1.36-2.47-.87-.83,.42-1.3,1.51-.94,2.21,1.12-.44,2.25-.88,3.41-1.34Z"/>
      <path d="M187.42,186.16c-1.46,0-2.52-1.05-2.51-2.5,0-1.41,1.13-2.5,2.55-2.49,1.42,.01,2.5,1.08,2.5,2.49,0,1.42-1.1,2.5-2.54,2.5Zm.01-.49c1.09,0,1.94-.87,1.94-1.98,0-1.13-.86-2.03-1.95-2.02-1.08,0-1.95,.92-1.94,2.04,0,1.11,.86,1.97,1.95,1.97Z"/>
      <path d="M155.19,188.29c.27-.63,.52-1.25,.81-1.85,.14-.29,.14-.52,0-.82-.62-1.28-1.21-2.57-1.81-3.86-.06-.12-.11-.25-.17-.39,.4-.13,.62-.04,.79,.35,.51,1.19,1.07,2.36,1.64,3.6,.08-.16,.14-.25,.19-.36,.49-1.1,.98-2.19,1.45-3.29,.13-.32,.31-.44,.68-.31-.05,.12-.09,.25-.14,.37-.9,2.07-1.81,4.14-2.7,6.21-.15,.35-.33,.49-.75,.34Z"/>
      <path d="M192.24,186.05h-.53v-4.67q.43-.11,.52,.87c.1-.12,.17-.21,.25-.29,.58-.65,1.32-.87,2.16-.72,.6,.11,1.02,.61,1.09,1.23,.02,.15,.01,.31,.01,.46,0,1.03,0,2.06,0,3.11h-.56c0-.11-.02-.23-.02-.34,0-.92,0-1.84,0-2.76,0-.97-.65-1.46-1.59-1.18-.74,.22-1.2,.72-1.28,1.49-.06,.55-.03,1.11-.04,1.67,0,.36,0,.72,0,1.13Z"/>
      <path d="M183.48,181.74c-.09,.13-.15,.23-.16,.25-.47-.11-.89-.26-1.31-.28-.38-.02-.71,.17-.8,.6-.08,.43,.14,.69,.51,.85,.41,.17,.83,.34,1.23,.52,.43,.19,.69,.52,.69,1.01,0,.52-.18,.96-.64,1.24-.73,.45-1.96,.26-2.56-.41,.07-.1,.14-.22,.23-.34,.47,.36,.96,.61,1.56,.51,.52-.09,.79-.33,.83-.75,.04-.43-.15-.72-.63-.92-.34-.14-.69-.24-1.01-.39-.63-.3-.86-.71-.78-1.33,.07-.55,.51-.97,1.14-1.06,.62-.09,1.19,.05,1.71,.51Z"/>
      <path d="M204.73,176.86h.51v9.18h-.51v-9.18Z"/>
      <path d="M177.26,182.4c.66-.84,1.24-1.18,2-1.19v.5c-.12,.02-.23,.05-.34,.07-.98,.16-1.58,.85-1.61,1.84-.01,.4,0,.81,0,1.22,0,.39,0,.78,0,1.2h-.53v-4.67c.34-.12,.51-.03,.49,.35-.01,.19,0,.38,0,.69Z"/>
    </g>
    <path d="M215.02,221.81c.54-.5,1.04-1.04,1.63-1.48,1.75-1.33,3.77-1.4,5.59-.12,.82,.58,1.54,1.33,2.22,2.08,1.42,1.56,2.57,1.88,4.38,.81,1.8-1.07,3.52-2.23,4.6-4.2,1.56-2.87,4.52-3.89,7.93-2.84,.97,.3,1.4,.02,1.62-.81,.91-3.46,1.89-6.91,2.67-10.4,1.75-7.92,2.41-15.98,3.18-24.03,.07-.7,.12-1.41,.28-2.09,.23-1.01,1.1-1.58,2.13-1.48,1.03,.1,1.44,.56,1.48,1.79,.18,6.79,.25,13.58,.55,20.37,.26,6.01,.74,12.01,1.21,18.01,.09,1.09,.49,2.2,.92,3.22,.43,1.02,1.19,1.25,2.17,.74,1.45-.75,2.73-1.72,3.49-3.25,1.06-2.16,2.6-3.93,4.61-5.26,1.19-.78,2.48-1.21,3.9-.74,.32,.1,.78,.5,.75,.72-.04,.34-.39,.84-.69,.91-3.31,.73-4.46,3.5-5.81,6.08-.23,.45-.32,.98-.47,1.47,.07,.05,.14,.11,.22,.16,.7-.61,1.41-1.19,2.09-1.82,.83-.76,1.58-1.62,2.44-2.33,1.51-1.24,2.94-1.27,4.54-.2,1.66,1.1,4.24,.77,5.56-.74,.16-.18,.09-.57,.12-.87,.11-1.15,.14-2.3,.34-3.44,.14-.83,.79-1.31,1.62-1.46,1.23-.22,1.8,.36,1.55,1.58-.3,1.45-.3,2.86,.27,4.25,.52,1.26,1.15,1.46,1.96,.4,1.17-1.52,2.19-3.17,3.2-4.81,.47-.77,.87-1.52,1.82-1.77,1.53-.41,2.53,.26,2.6,1.83,.09,2,.12,4.01,.2,6.02,.02,.43,.1,.86,.18,1.51,.52-.39,.87-.62,1.17-.89,1.27-1.17,2.49-2.39,3.81-3.5,.51-.43,1.21-.68,1.87-.83,.3-.07,.84,.21,1.03,.49,.12,.18-.1,.73-.32,.98-1.07,1.21-2.18,2.39-3.3,3.56-5.71,5.92-4.39,4.07-4.9,11.3-.4,5.69-.79,11.39-2.66,16.83-.75,2.17-1.87,4.24-3.06,6.22-1.14,1.9-2.98,2.69-5.25,2.36-2.23-.33-3.47-1.52-3.8-3.74-.38-2.47,.16-4.85,.88-7.17,2.12-6.8,5.3-13.09,9.3-18.97,.93-1.37,1.44-2.78,1.39-4.43-.04-1.5-.02-3.01-.02-4.76-.82,.63-1.45,1.1-2.08,1.59-1.03,.8-2.19,1.26-3.51,1.27-1.48,.02-2.64-.61-3.49-1.81-2.56,1.86-5.3,2.2-8.27,1.4-.46-.12-1.17,.15-1.57,.48-1.03,.85-1.85,1.96-2.93,2.73-1.12,.79-2.39,1.49-3.69,1.89-1.41,.43-2.34-.16-3.05-1.49-.59,.26-1.18,.55-1.79,.77-2.39,.89-4.52,.17-5.57-2.15-.7-1.55-1.22-3.24-1.42-4.92-.48-3.98-.73-7.99-1.07-11.99-.03-.35-.05-.7-.24-1.07-.08,.32-.17,.63-.24,.95-1.46,6.12-2.68,12.32-5.65,17.95-.67,1.26-1.53,2.45-2.46,3.53-1.4,1.63-3.29,2.09-5.37,1.72-1.6-.28-2.65-1.22-3.05-2.83-.12-.5-.25-1-.39-1.55-.93,.55-1.76,1.15-2.68,1.57-1.02,.46-2.09,.85-3.18,1.07-1.77,.36-3.26-.21-4.38-1.67-.51-.67-1-1.37-1.6-1.96-.83-.83-1.5-.83-2.06,.17-.96,1.7-1.77,3.49-2.6,5.27-.35,.76-.54,1.6-.87,2.37-.41,.93-1.18,1.27-2.16,1.1-.98-.17-1.43-.8-1.48-1.77-.05-.88-.12-1.75-.2-2.77-1.9,2.05-3.97,3.72-6.96,3.46-3.04-.26-4.81-2.23-6.27-4.79-.24,.26-.44,.46-.63,.69-1.73,2.11-3.69,3.98-6,5.44-1.45,.91-3.01,1.55-4.78,1.37-1.64-.16-2.63-1.04-2.75-2.67-.09-1.22,.13-2.45,.09-3.68-.02-.64-.12-1.42-.5-1.86-.36-.43-2.09,.33-2.56,.86-1.19,1.33-2.34,2.72-3.68,3.89-1.44,1.25-3.29,1.53-5.17,1.43-1.87-.1-3.18-1.01-3.82-2.81-.23-.66-.44-1.33-.61-1.85-2.33,.89-4.68,1.8-7.04,2.7-.92,.35-.71,1.19-.82,1.89-.41,2.56-.61,5.18-1.28,7.68-1.72,6.4-5.57,11.48-10.5,15.75-8.51,7.37-18.47,10.91-29.71,10.56-5.91-.18-11.6-1.41-16.63-4.76-.96-.64-1.85-1.41-2.65-2.25-2.33-2.47-2.66-5.33-1.08-8.35,1.58-3.03,4.2-4.97,7.04-6.66,4.44-2.65,9.31-4.3,14.19-5.92,1.2-.4,2.4-.83,3.61-1.17,1.07-.3,1.43-.96,1.39-2.03-.15-3.45-.19-6.9-.38-10.34-.44-7.87-.93-15.74-1.46-23.61-.1-1.57-.44-3.13-.69-4.7-.26-1.6-.06-2.11,1-2.34,1.12-.23,1.83,.21,2.11,1.63,.46,2.34,.8,4.71,1.13,7.08,.2,1.5,.27,3.01,.42,4.52,.05,.55,.15,1.1,.26,1.89,.44-.31,.78-.46,.99-.71,3.63-4.23,6.63-5.87,9.23-10.82,1.13-2.15,2.09-4.49,2.59-6.86,.98-4.7-1.48-7.39-6.3-7.24-4.85,.14-9.31,1.73-13.65,3.72-2.17,.99-4.12,2.28-5.72,4.07-.49,.54-.89,1.09-.51,1.89,.08,.17,0,.5-.12,.66-.46,.59-2.19,.71-2.87,.24-.78-.54-.81-1.2-.2-2.31,1.07-1.91,2.75-3.2,4.51-4.36,6.15-4.06,12.95-5.95,20.29-5.69,1.59,.06,3.26,.6,4.72,1.29,2.48,1.17,3.5,3.37,3.38,6.07-.11,2.42-.85,4.69-1.86,6.88-2.5,5.43-5.69,7.36-9.41,11.95-.75,.93-1.55,1.82-2.31,2.75-.28,.34-.49,.74-.91,1.38,.75-.05,1.22-.07,1.68-.12,4.12-.53,8.24-1.07,12.42-.85,8.84,.46,14.03,4.79,16.52,13.64,.12,.44,.22,.89,.31,1.34,.3,1.6,.7,1.97,2.3,1.5,1.78-.52,3.51-1.23,5.22-1.96,.32-.13,.55-.75,.6-1.16,.11-1,.51-1.67,1.53-1.87,1.02-.2,1.66,.23,1.79,1.27,.14,1.15,.15,2.32,.31,3.47,.39,2.74,2.29,3.66,4.5,1.99,1.46-1.11,2.61-2.63,3.87-3.99,.14-.15,.04-.52,.06-.79,.16-1.67,.27-3.34,.5-4.99,.11-.83,.78-1.22,1.57-1.35,1.16-.18,1.75,.37,1.64,1.53-.08,.94-.2,1.89-.28,2.83-.01,.13,.07,.27,.17,.63,.51-.35,.91-.71,1.38-.95,.73-.37,1.48-.81,2.27-.93,1.1-.17,1.62,.47,1.47,1.61-.25,1.92-.56,3.83-.82,5.74-.07,.52-.09,1.05-.06,1.58,.08,1.47,.77,1.88,2.1,1.19,.65-.34,1.32-.73,1.82-1.24,1.84-1.89,3.62-3.83,5.39-5.78,.17-.18,.21-.59,.14-.85-1.43-5.16-1.85-10.45-2.01-15.77-.03-.91-.08-1.83-.12-2.74-.03-.79-.45-1.14-1.23-1.09-1.34,.09-2.67,.17-4.01,.25-.32,.02-.64,.07-.95,.02-.63-.12-1.39-.32-1.25-1.11,.06-.33,.79-.69,1.26-.76,1.6-.22,3.22-.33,4.84-.46,.93-.07,1.34-.46,1.33-1.47-.05-3.02,0-6.05,.02-9.08,0-.82,.17-1.55,1.07-1.86,1.16-.41,2.11,.09,2.22,1.32,.15,1.57,.18,3.16,.22,4.74,.04,1.48,.03,2.96,.07,4.43,.03,1.33,.31,1.58,1.69,1.49,2.57-.16,5.13-.33,7.7-.51,.87-.06,1.73-.12,2.71-.19-.04-2.22-.14-4.53-.12-6.85,.02-2.85,.13-5.69,.22-8.54,.01-.42,.12-.83,.19-1.25,.25-1.46,1.06-2.45,2.53-2.77,1.47-.32,2.72,.11,3.69,1.26,1.05,1.25,1.5,2.75,1.77,4.34,1.5,8.75,.77,17.39-1.2,25.97-.65,2.81-1.41,5.59-2.12,8.38-.14,.56-.24,1.13-.36,1.7,.08,.02,.17,.03,.25,.05Zm-92.66,41.02c7.35-.55,14.02-3.01,19.91-7.4,8.1-6.04,13.44-13.72,13.83-24.2,.04-1.12-.06-1.27-1.17-1.06-2.42,.46-4.84,.9-7.24,1.47-6.4,1.52-12.78,3.12-19.17,4.65-1.1,.26-1.68,.76-1.58,1.95,.09,1.01-.39,1.58-1.42,1.71-.97,.11-1.44-.34-1.59-1.25-.11-.68-.52-.86-1.15-.67-.88,.26-1.76,.49-2.63,.77-5.04,1.62-9.96,3.52-14.37,6.48-1.56,1.04-3.02,2.33-4.24,3.75-2.1,2.45-2.04,5.19,.2,7.5,1.27,1.32,2.8,2.53,4.43,3.32,5.09,2.49,10.54,3.4,16.2,2.98Zm4.59-32.46c-.05,0-.11,0-.16,0,.06,.77,.12,1.54,.16,2.32,.09,1.53,.35,1.7,1.82,1.33,4.23-1.07,8.45-2.17,12.7-3.14,4.35-1,8.74-1.88,13.11-2.81,1.38-.29,1.54-.45,1.29-1.85-.25-1.34-.54-2.69-.98-3.99-1.98-5.86-5.8-9.62-12.16-10.36-5.19-.61-10.24,.38-15.3,1.29-.88,.16-1.01,.82-.98,1.61,.18,5.2,.34,10.41,.51,15.61Zm83.03-29.08c-.46,.06-1.01,.16-1.57,.21-2.98,.25-5.96,.49-8.95,.71-.88,.07-1.39,.43-1.36,1.37,.15,5.56,.33,11.13,1.71,16.54,.52,2.04,1.53,3.98,2.49,5.88,.53,1.04,1.49,1.82,2.8,1.77,2.6-.08,6.01-3.8,5.91-6.4-.16-4.01-.27-8.01-.47-12.02-.13-2.7-.38-5.39-.57-8.08Zm77.9,29.44c-.16-.06-.31-.12-.47-.17-.48,.73-1.06,1.41-1.43,2.18-2.24,4.64-3.8,9.51-4.62,14.6-.26,1.63-.47,3.27-.59,4.91-.04,.51,.26,1.04,.4,1.57,.44-.29,1.05-.48,1.29-.89,.8-1.35,1.73-2.71,2.14-4.19,1.02-3.68,1.89-7.4,2.61-11.15,.43-2.25,.46-4.57,.67-6.86Zm-73.71-19.39c2-5.16,1.96-25.32-.24-27.74-.53,9.43,.22,18.58,.24,27.74Zm27.5,7.22c-.5-.17-.86-.32-1.23-.42-2.06-.58-3.25,0-4.13,1.98-.67,1.51-.75,3.05-.21,4.61,.44,1.26,1.03,1.41,1.94,.42,1.72-1.86,2.73-4.12,3.62-6.58Zm-74.94-6.89c0-1.55,1.09-2.63,2.47-2.46,.94,.11,1.36,.61,1.26,1.56-.1,.95-.26,1.89-1.23,2.4-1.33,.7-2.5,0-2.5-1.49Z"/>
    <g>
      <g>
        <path d="M248.2,251.18h-1.27v-2.25c-1.5,1.56-3.07,2.47-5.05,2.49-1.98,.02-3.6-.72-4.76-2.32-1.8-2.47-1.43-6.22,.76-8.17,2.46-2.18,5.86-1.85,8.99,.96v-12.72h1.33v22.01Zm-1.32-5.9c0-2.56-2.13-4.66-4.75-4.68-2.68-.02-4.75,2.04-4.78,4.75-.03,2.7,2.1,4.87,4.79,4.87,2.81,0,4.74-2.01,4.74-4.95Z"/>
        <path d="M202.23,251.19h-1.37c0-.51,0-1,0-1.48,0-2.04,.02-4.08,0-6.12-.02-2.22-1.6-3.34-3.73-2.69-1.82,.56-3.04,2.17-3.08,4.13-.03,1.71,0,3.41,0,5.12,0,.33,0,.65,0,1.02h-1.32v-11.29c.35-.02,.67-.04,1.08-.06,.07,.74,.13,1.42,.2,2.17,3.42-3.27,6.81-3.28,8.23-.01,.22-.24,.41-.46,.6-.67,1.29-1.44,2.92-1.96,4.8-1.71,1.38,.18,2.61,1.26,2.66,2.62,.11,2.96,.03,5.93,.03,8.95h-1.22c-.02-.35-.05-.7-.05-1.06,0-2.14,.02-4.28,0-6.42-.03-2.51-1.91-3.68-4.18-2.59-1.65,.79-2.56,2.13-2.61,3.97-.04,1.67-.01,3.35-.01,5.02,0,.36,0,.72,0,1.11Z"/>
        <path d="M179.24,247.49c1.26,2.88,4.29,3.49,7.58,1.59,.2,.28,.4,.57,.6,.85-1.96,1.74-5,1.99-7.24,.64-2.21-1.33-3.26-4-2.6-6.61,.63-2.5,2.98-4.37,5.65-4.48,2.63-.11,4.62,1.37,5.62,4.29-3.18,1.23-6.36,2.47-9.61,3.73Zm-.35-1.01c2.83-1.11,5.56-2.19,8.31-3.27-1.21-2.27-3.19-3.09-5.35-2.32-2.22,.79-3.42,2.96-2.96,5.59Z"/>
        <path d="M263.77,243.77c-3.24,1.26-6.41,2.48-9.58,3.71,1.04,2.85,4.42,3.56,7.51,1.58,.21,.27,.42,.55,.63,.82-1.6,1.68-4.74,2.04-7,.82-2.29-1.24-3.46-3.88-2.87-6.48,.61-2.7,2.86-4.59,5.63-4.74,2.66-.14,4.71,1.38,5.68,4.29Zm-1.67-.54c-1.16-2.31-3.26-3.14-5.46-2.29-2.2,.85-3.4,3.16-2.77,5.52,2.73-1.07,5.45-2.14,8.23-3.23Z"/>
        <path d="M223.55,251.17h-1.3v-11.3h1.08c.04,.71,.08,1.38,.14,2.28,1.36-1.95,3.1-2.75,5.25-2.6,1.67,.11,3.05,1.35,3.09,3,.08,2.84,.02,5.68,.02,8.59h-1.37c0-1.46,0-2.89,0-4.32,0-.94-.02-1.87,0-2.81,.03-1.18-.09-2.34-1.27-2.95-1.23-.63-2.49-.41-3.63,.29-1.32,.82-2,2.04-2.02,3.59-.02,2.04,0,4.07,0,6.23Z"/>
        <path d="M168.61,239.87h1.08c.06,.76,.12,1.48,.18,2.2,.74-.62,1.38-1.3,2.16-1.74,.75-.43,1.63-.62,2.56-.95v1.38c-.21,.05-.4,.11-.58,.14-2.67,.43-4.07,2.03-4.08,4.71,0,1.83,0,3.66,0,5.54h-1.31v-11.28Z"/>
        <path d="M267.69,239.87h1.08c.06,.76,.12,1.48,.19,2.41,1.25-1.67,2.71-2.63,4.7-2.73v1.12c-.1,.08-.14,.14-.2,.15-3.44,.69-4.46,1.95-4.46,5.49,0,1.6,0,3.19,0,4.84h-1.31v-11.28Z"/>
        <path d="M216.91,239.91v11.23h-1.27v-11.23h1.27Z"/>
      </g>
      <path d="M216,235.13c.27,.07,.51,.06,.69,.2,.21,.16,.48,.42,.53,.71,.04,.21-.2,.64-.39,.8-.48,.41-1.03,.43-1.54,.11-.18-.12-.41-.45-.42-.7,0-.25,.2-.6,.37-.75,.24-.21,.53-.27,.75-.37Z"/>
    </g>
  </g>
  <g>
    <path class="cls-8" d="M387.91,36.17c-.54,13.32-8.67,23.79-18.15,23.4-2.16-.09-4.21-.74-6.08-1.84-1.37-7.71-5.09-14-9.83-17.21-.25-1.85-.34-3.78-.25-5.76,.55-13.32,8.67-23.79,18.15-23.4,9.47,.39,16.71,11.5,16.16,24.81Z"/>
    <path class="cls-8" d="M349.8,87.27c-9.08,1-17.4-9.16-18.57-22.68-1.17-13.53,5.24-25.31,14.32-26.31,2.92-.32,5.76,.51,8.31,2.24,4.73,3.21,8.46,9.5,9.83,17.21,.19,1.05,.33,2.14,.43,3.24,1.17,13.53-5.24,25.31-14.32,26.3Z"/>
    <line class="cls-5" x1="366.11" y1="120.95" x2="369.01" y2="157.34"/>
    <line class="cls-5" x1="360.12" y1="116.05" x2="369.43" y2="157.55"/>
    <path class="cls-5" d="M387.91,36.17c-.54,13.32-8.67,23.79-18.15,23.4-2.16-.09-4.21-.74-6.08-1.84-1.37-7.71-5.09-14-9.83-17.21-.25-1.85-.34-3.78-.25-5.76,.55-13.32,8.67-23.79,18.15-23.4,9.47,.39,16.71,11.5,16.16,24.81Z"/>
    <path class="cls-4" d="M365.07,116.53s-2.45,3.28-2.05,3.62,.5,1.29,2.74,1.13,3.15-.43,3.15-.43l-1.66-4.25-2.18-.06Z"/>
    <path class="cls-5" d="M349.8,87.27c-9.08,1-17.4-9.16-18.57-22.68-1.17-13.53,5.24-25.31,14.32-26.31,2.92-.32,5.76,.51,8.31,2.24,4.73,3.21,8.46,9.5,9.83,17.21,.19,1.05,.33,2.14,.43,3.24,1.17,13.53-5.24,25.31-14.32,26.3Z"/>
    <ellipse class="cls-9" cx="366.8" cy="88.88" rx="22.21" ry="28.78" transform="translate(-4.49 21.19) rotate(-3.29)"/>
    <path class="cls-5" d="M366.71,117.67c-.33-1.02-2.25-3.71-3.48-3.7-1.54,.97,.15,2.31,1.02,2.54,1.06,.28,6.02,1.02,6.18,.32,.2-.85,.75-1.87,.47-2.4-.35-.66-2.46,1.45-4.89,2.35s-5.26,.61-5.09,1.63c.31,1.85,2.84-.53,4.91-1.44"/>
    <path class="cls-3" d="M369.49,60.44c-.24-.13-.08-.43-.2-.8-.17-.56-1.07-1.92-1.64-1.94-.7,.5-.27,1.13,.14,1.27,.5,.17,3.16,.67,3.22,.29,.08-.46,.32-1.01,.17-1.3-.18-.37-1.12,.74-2.24,1.19s-.71,.47-.61,1.04"/>
    <path class="cls-7" d="M351.07,41.23c1.56,.85,3.68,2.13,5.3,4.78,.35,.57,.64,1.14,.42,1.54-.25,.45-.77,.23-1.19-.41-1.9-2.88-3.01-3.36-4.12-4.06-.72-.45-3.83-1.5-3.42-2.29,.35-.68,2.38,.09,3.02,.44Z"/>
    <path class="cls-7" d="M376.42,14.5c1.56,.85,3.68,2.13,5.3,4.78,.35,.57,.64,1.14,.42,1.54-.25,.45-.77,.23-1.19-.41-1.9-2.88-3.01-3.36-4.12-4.06-.72-.45-3.83-1.5-3.42-2.29,.35-.68,2.38,.09,3.02,.44Z"/>
    <path class="cls-7" d="M382.57,74.98c.57,1.45,2.3,5.53,1.37,6.24-1.75,1.33-1.84-1.51-2.49-2.88-2.66-5.59-3.82-6.68-6.04-8.68-2.02-1.82-3.36-2-3.98-3.42-.87-2.01,1.26-1.61,2.1-1.13,1.88,1.09,5.85,2.98,9.04,9.88Z"/>
    <path class="cls-7" d="M384.2,88.63c.43,.41,.9,.28,1.22-.28,.44-.76,.14-1.78,.11-2.31-.05-.84-.43-3.16-1.65-2.49-1,.55,0,2-.05,3.83,0,.37,.12,1,.38,1.24Z"/>
    <ellipse class="cls-5" cx="366.8" cy="88.88" rx="22.21" ry="28.78" transform="translate(-4.49 21.19) rotate(-3.29)"/>
    <line class="cls-5" x1="369.6" y1="117.5" x2="369.43" y2="157.55"/>
  </g>
  <path class="cls-2" d="M363.99,164.52c.96,.77,7.04-13.31,11.74-8.7,1.49,1.46-6.5,2.33-6.5,2.33-.08-2.29-4.62-3.69-5.4-3.34-.18,3.57,4.66,2.9,5.4,3.34,.91,.54-.66,2.15,.07,2.92"/>
</svg>