<?xml version="1.0" encoding="UTF-8"?>
<svg id="Layer_1" data-name="Layer 1" xmlns="http://www.w3.org/2000/svg" viewBox="0 0 110.38 61.65">
  <defs>
    <style>
      .cls-1 {
        fill: none;
        stroke: #e8e8e8;
        stroke-miterlimit: 10;
        stroke-width: 2.26px;
      }

      .cls-2 {
        fill: #e8e8e8;
      }
    </style>
  </defs>
  <g>
    <path class="cls-2" d="M81.94,38.5c-.38-.93-.4-1.85-.31-2.78,.02-.22,.06-.44,.13-.65,.08-.28,.25-.5,.59-.42,.35,.08,.65,.23,.62,.65-.02,.25-.09,.5-.15,.75-.15,.65-.13,1.3,.12,1.92,.24,.6,.71,.95,1.34,.99,.6,.03,1.01-.32,1.26-.86,.19-.42,.37-.84,.55-1.27,.42-.98,1.07-1.09,1.76-.29,.77,.89,1.06,1.98,1.22,3.11,.09,.66,.12,1.32,.18,2.01,1.06-1.13,2.11-2.25,3.23-3.45-.44-1.24,.41-2.26,1.36-3.17,.48-.46,1.15-.84,1.79-1.01,1.29-.34,2.56,.68,2.77,2.16,.12,.83,.11,1.67,.16,2.57,.48-.06,1.03-.14,1.59-.21,.13-.02,.25-.06,.38-.05,.11,.01,.21,.09,.32,.13-.07,.1-.12,.25-.21,.28-.48,.16-.96,.35-1.46,.41-.57,.07-.85,.28-1.01,.87-.29,1.08-.85,2.05-1.6,2.9-.06,.07-.13,.14-.19,.21-1.05,1-1.97,.84-2.61-.46-.56-1.13-.6-2.36-.67-3.58-.01-.19-.08-.37-.12-.55-.05-.01-.1-.03-.15-.04-.51,.56-1.03,1.1-1.52,1.68-.46,.55-.84,1.16-1.3,1.71-.57,.68-.69,1.46-.73,2.31-.14,2.89-.29,5.79-1.16,8.58-.3,.96-.74,1.89-1.25,2.76-.49,.83-1.26,1.41-2.31,1.17-1.09-.25-1.59-1.1-1.78-2.14-.25-1.36,.05-2.66,.49-3.93,1.01-2.91,2.68-5.43,4.57-7.82,.16-.2,.3-.52,.27-.76-.16-1.35-.37-2.7-.58-4.05-.04-.22-.17-.43-.32-.77-.16,.28-.26,.44-.35,.61-.18,.34-.31,.71-.52,1.01-.88,1.24-2.84,1.35-3.89,.24-.11-.12-.21-.24-.34-.39-1.22,.87-2.35,.5-3.46-.27-.25-.17-.52-.31-.76-.49-.38-.28-.59-.15-.75,.24-.19,.46-.36,.92-.57,1.36-.34,.7-.66,1.41-1.07,2.07-.68,1.1-1.87,1.49-3.07,1.1-1.08-.35-1.79-1.46-1.72-2.69,0-.15,0-.31,0-.38-.72,.26-1.44,.58-2.2,.79-1.3,.36-2.39-.04-3.19-1.13-.43-.59-.78-1.23-1.17-1.85-.71-1.12-1.19-1.16-1.91-.04-.57,.89-.99,1.88-1.47,2.83-.38,.73-.99,.98-1.58,.55-.26-.19-.41-.58-.55-.9-.09-.21-.09-.45-.14-.75-.45,.54-.85,1.02-1.26,1.5-.81,.97-1.8,1.7-2.95,2.2-.1,.04-.2,.1-.31,.13-1.54,.53-2.69-.21-2.79-1.84-.04-.76,.05-1.52,.07-2.29,0-.3,0-.59,0-.92-.17,.02-.26,.04-.34,.03-.18-.03-.48-.03-.52-.12-.07-.18-.04-.44,.06-.61,.18-.32,1.01-.55,1.39-.43,.5,.15,.57,.58,.55,1-.02,.68-.11,1.36-.13,2.05-.02,.54,0,1.08,.05,1.61,.06,.59,.41,.8,1.01,.72,.91-.11,1.72-.48,2.41-1.07,.84-.72,1.63-1.51,2.42-2.29,.14-.14,.2-.42,.18-.63-.07-.74-.19-1.48-.28-2.22-.01-.09-.02-.19-.03-.29-.02-.37,.1-.7,.48-.77,.4-.08,.62,.2,.68,.57,.11,.72,.16,1.45,.28,2.17,.05,.29,.21,.57,.31,.85,.23-.21,.49-.4,.69-.64,.36-.46,.63-1,1.03-1.42,.96-.99,1.97-.99,2.96-.02,.3,.3,.56,.65,.81,1,.22,.31,.4,.65,.59,.98,1.11,1.95,3.37,2.22,4.95,.58,.1-.11,.16-.27,.23-.41,.67-1.38,1.68-2.38,3.15-2.87,.24-.08,.49-.11,.83-.18-.26-.23-.48-.42-.7-.61-3.42-2.92-5.86-6.5-7.24-10.78-.76-2.36-1.23-4.76-1.31-7.25-.15-4.7,2.04-8.01,6-10.29,2.35-1.36,4.86-2.2,7.62-2.07,1.86,.09,3.57,.62,4.94,1.95,1.3,1.27,1.78,2.89,1.86,4.67,.1,2.2-.4,4.29-1.09,6.36-2.01,6-4.43,11.84-6.78,17.71-.48,1.2-.36,1.61,.64,2.42,.87,.71,1.82,1,2.98,.69Zm-4.91-2.44c.12-.26,.17-.36,.21-.46,.81-2.04,1.6-4.08,2.43-6.11,1.82-4.48,3.55-8.98,4.94-13.61,.57-1.89,.84-3.81,.37-5.79-.58-2.47-2.45-4.08-4.98-4.26-3.07-.22-5.8,.66-8.29,2.41-2.42,1.7-3.95,3.93-4.37,6.92-.35,2.53-.06,4.99,.6,7.41,1.12,4.09,3.12,7.71,6.12,10.73,.92,.93,1.92,1.79,2.96,2.75Zm10.94,8.85s-.06-.03-.09-.04c-.05,.05-.11,.1-.15,.16-.92,1.41-1.9,2.78-2.73,4.23-.74,1.29-1.28,2.7-1.4,4.22-.06,.72-.02,1.44,.52,2.01,.47,.49,1.03,.49,1.41-.07,.34-.49,.62-1.03,.85-1.59,.81-1.96,1.14-4.02,1.34-6.11,.09-.94,.17-1.88,.25-2.82Zm-12.66-8.27c-2.05-.01-3.79,2.42-3.12,4.36,.22,.63,.69,.95,1.34,.92,.5-.02,.91-.24,1.13-.68,.55-1.13,1.06-2.27,1.58-3.41,.43-.95,.25-1.07-.78-1.18-.05,0-.1,0-.14,0Zm22.34,2.22c0-.81,.04-1.55,0-2.29-.06-.89-.52-1.43-1.19-1.51-.79-.1-1.96,.56-2.19,1.23,.74-.23,.97-.18,1.3,.3-.98,.14-.9,.99-1.17,1.67,1.03,.43,2.05,.59,3.26,.59Zm-3.37,.73c-.04,.98-.01,2.02,.52,2.98,.24,.43,.51,.52,.85,.24,.95-.8,1.38-1.89,1.66-3.02-1.03-.07-1.98-.13-3.02-.19Z"/>
    <path class="cls-2" d="M18.27,30.5c.22,.1,.3,.15,.4,.18,2.38,.59,3.54,2.27,3.91,4.54,.21,1.29,.26,2.61,.32,3.93,.07,1.64,.02,3.28,.11,4.92,.05,.9,.28,2.83,.89,3.49,1.5,1.63,4.7,2.27,6.27,2.53,.15,.03,.34,.04,.43,.13,.17,.16,.37,.37,.38,.56,.01,.33-.29,.37-.57,.34-1.83-.17-6.34-1.02-7.71-2.77-.63-.81-1.05-2.9-1.11-3.92-.14-2.42-.16-4.85-.24-7.28-.04-1.15-.18-2.28-.68-3.34-.72-1.52-1.94-2.23-3.58-2.28-.44-.01-.89,.02-1.33,.01-.36,0-.64-.14-.69-.54-.04-.38,.1-.67,.48-.81,.78-.29,1.57-.57,2.34-.89,6-2.49,10.98-6.32,14.89-11.51,1.45-1.93,2.64-4.03,3.18-6.43,.26-1.17,.25-2.34-.15-3.49-.47-1.34-1.35-1.87-2.75-1.73-1.68,.17-3.15,.83-4.5,1.81-3.39,2.46-6.08,5.58-8.42,9.02-3.02,4.43-5.23,9.26-7.1,14.26-2.31,6.17-4.22,12.47-5.66,18.91-.19,.84-.15,1.73-.26,2.59-.07,.52-.19,1.04-.34,1.54-.11,.37-.4,.61-.83,.53-.4-.07-.67-.35-.65-.74,.04-1.04,.09-2.08,.22-3.11,.58-4.26,1.15-8.53,1.81-12.78,.8-5.23,2-10.38,3.33-15.51,.9-3.45,1.72-6.92,2.57-10.38,.06-.25,.08-.51,.13-.76,.07-.35,.18-.72,.61-.68,.39,.04,.56,.38,.54,.76-.08,1.03-.05,2.1-.29,3.1-1.03,4.24-2.25,8.44-3.21,12.7-1.12,5.03-2.04,10.1-3.04,15.15-.04,.22-.03,.45-.04,.68,.06,.01,.12,.02,.19,.03,.09-.26,.18-.51,.26-.78,1.61-5.54,3.29-11.05,5.62-16.34,1.96-4.46,4.26-8.7,7.33-12.51,2.22-2.76,4.72-5.23,7.84-6.97,1.34-.75,2.72-1.42,4.32-1.43,2.39,0,3.91,1.4,4.09,3.79,.14,1.77-.27,3.43-.98,5.03-1.67,3.8-4.22,6.97-7.29,9.72-1.85,1.66-3.81,3.17-5.99,4.37-1.4,.77-2.9,1.35-4.35,2.02-.18,.08-.37,.16-.69,.3Z"/>
    <path class="cls-2" d="M35.68,40.84c.56-.83,1.11-1.66,1.69-2.47,.31-.43,.72-.72,1.29-.67,.73,.06,1.13,.37,1.33,1.09,.12,.43,.19,.87,.3,1.3,.05,.21,.13,.41,.23,.75,.21-.26,.34-.42,.47-.59,.45-.59,.84-1.25,1.35-1.78,1.36-1.39,3.39-1.01,4.13,.78,.5,1.21,.86,1.67,2.55,.93,.42-.18,.82-.42,1.24-.61,.1-.05,.26,0,.39,.02-.05,.12-.08,.26-.16,.34-.7,.61-1.45,1.14-2.41,1.27-1.01,.13-1.76-.25-2.26-1.15-.18-.33-.34-.68-.55-1-.45-.67-1.01-.78-1.6-.25-.46,.41-.83,.91-1.21,1.39-.36,.46-.64,.99-1.02,1.44-.63,.75-1.47,.66-1.86-.23-.29-.66-.41-1.39-.63-2.09-.05-.15-.15-.29-.22-.44-.15,.1-.35,.17-.43,.31-.72,1.16-1.42,2.33-2.12,3.51-.35,.59-.87,.77-1.35,.45-.36-.24-.43-.61-.43-1,0-.97,0-1.94,0-2.89-.69,.61-1.39,1.27-2.14,1.88-1.01,.83-2.14,1.43-3.49,1.47-2.24,.07-3.71-1.7-3.15-3.86,.44-1.69,1.18-3.22,2.59-4.34,.43-.34,.9-.53,1.46-.37,.53,.16,.77,.55,.65,1.1-.26,1.23-.97,2.15-2.03,2.82-.32,.2-.64,.41-.95,.64-.53,.4-.65,.96-.51,1.58,.15,.65,.49,1.13,1.18,1.31,1.08,.28,2.12,.08,3.03-.46,1.12-.67,2.16-1.5,3.22-2.29,.13-.1,.18-.36,.2-.55,.03-.51,0-1.02,.04-1.53,.02-.31,.04-.67,.49-.7,.47-.02,.79,.27,.8,.75,.01,.52-.02,1.05-.05,1.57-.05,.85-.11,1.7-.17,2.55,.03,0,.07,0,.1,0Zm-8.04-3.59c1.11-.3,1.85-1.27,1.57-2.02-.72,.5-1.19,1.16-1.57,2.02Z"/>
    <path class="cls-2" d="M51.35,34.27c.24,.04,.45,.04,.61,.12,.19,.1,.43,.25,.48,.43,.03,.13-.18,.39-.34,.48-.43,.25-.92,.26-1.37,.07-.16-.07-.37-.27-.37-.42,0-.15,.18-.36,.33-.45,.21-.12,.47-.16,.67-.22Z"/>
  </g>
  <line class="cls-1" x1="27.64" y1="46.05" x2="105.09" y2="46.05"/>
</svg>