<?xml version="1.0" encoding="UTF-8"?>
<svg id="Layer_1" data-name="Layer 1" xmlns="http://www.w3.org/2000/svg" viewBox="0 0 100.49 51.43">
  <defs>
    <style>
      .cls-1, .cls-2 {
        fill: #303346;
      }

      .cls-2 {
        stroke: #303346;
        stroke-miterlimit: 10;
        stroke-width: 2.26px;
      }
    </style>
  </defs>
  <g>
    <path class="cls-1" d="M77.67,34.32c-.37-.92-.4-1.82-.31-2.74,.02-.22,.06-.44,.12-.64,.08-.28,.24-.49,.58-.41,.34,.08,.64,.23,.61,.64-.02,.25-.09,.49-.15,.73-.15,.64-.13,1.28,.12,1.89,.24,.59,.7,.94,1.32,.98,.59,.03,1-.32,1.24-.84,.19-.41,.36-.83,.54-1.25,.41-.96,1.05-1.08,1.74-.28,.76,.87,1.05,1.95,1.2,3.06,.09,.65,.12,1.31,.18,1.98,1.05-1.12,2.08-2.22,3.19-3.4-.43-1.22,.41-2.23,1.34-3.12,.48-.46,1.13-.83,1.77-1,1.27-.33,2.53,.67,2.73,2.13,.12,.81,.11,1.65,.16,2.54,.47-.06,1.02-.13,1.57-.21,.12-.02,.25-.06,.37-.05,.11,.01,.21,.09,.31,.13-.07,.09-.12,.25-.21,.27-.47,.16-.95,.34-1.44,.4-.56,.07-.84,.28-1,.86-.29,1.07-.84,2.02-1.58,2.86-.06,.07-.12,.14-.19,.21-1.03,.98-1.94,.82-2.57-.45-.55-1.12-.59-2.32-.66-3.53-.01-.18-.08-.36-.12-.54-.05-.01-.1-.03-.15-.04-.5,.55-1.02,1.09-1.49,1.66-.45,.54-.83,1.14-1.28,1.68-.56,.67-.68,1.44-.72,2.27-.14,2.85-.29,5.71-1.14,8.45-.29,.95-.73,1.87-1.23,2.72-.48,.82-1.25,1.39-2.27,1.15-1.08-.24-1.56-1.09-1.75-2.11-.25-1.34,.05-2.62,.49-3.87,1-2.86,2.64-5.35,4.51-7.71,.16-.2,.3-.51,.27-.75-.16-1.33-.36-2.66-.57-3.99-.03-.22-.17-.43-.31-.76-.16,.27-.26,.43-.34,.6-.17,.33-.3,.7-.52,1-.87,1.22-2.8,1.33-3.84,.24-.11-.11-.2-.24-.33-.38-1.2,.86-2.32,.49-3.41-.26-.24-.17-.51-.3-.75-.48-.37-.28-.58-.15-.74,.23-.18,.45-.36,.9-.57,1.34-.33,.69-.65,1.39-1.05,2.04-.67,1.08-1.84,1.47-3.02,1.08-1.06-.35-1.76-1.44-1.7-2.65,0-.15,0-.3,0-.38-.71,.26-1.42,.58-2.17,.78-1.28,.35-2.36-.04-3.14-1.12-.42-.58-.77-1.22-1.16-1.82-.7-1.1-1.18-1.15-1.88-.04-.56,.88-.97,1.85-1.45,2.79-.37,.72-.98,.97-1.56,.55-.26-.19-.4-.57-.54-.88-.09-.2-.09-.45-.14-.74-.44,.53-.84,1.01-1.24,1.48-.8,.95-1.77,1.68-2.91,2.17-.1,.04-.2,.09-.3,.13-1.52,.52-2.66-.2-2.75-1.81-.04-.75,.05-1.5,.07-2.25,0-.29,0-.58,0-.91-.16,.02-.25,.04-.34,.03-.18-.03-.48-.03-.51-.12-.06-.17-.04-.43,.06-.6,.18-.31,1-.54,1.37-.43,.49,.15,.56,.57,.55,.98-.02,.67-.1,1.34-.12,2.02-.02,.53,0,1.06,.05,1.59,.06,.58,.41,.78,.99,.71,.9-.11,1.7-.48,2.37-1.05,.83-.71,1.61-1.49,2.38-2.26,.13-.13,.2-.42,.18-.62-.07-.73-.18-1.46-.28-2.19-.01-.09-.02-.19-.03-.28-.02-.37,.1-.69,.48-.76,.4-.08,.61,.2,.67,.56,.1,.71,.16,1.43,.28,2.14,.05,.29,.2,.56,.31,.84,.23-.21,.49-.39,.68-.63,.36-.45,.62-.99,1.02-1.4,.94-.98,1.94-.98,2.91-.02,.3,.29,.55,.64,.8,.98,.22,.31,.4,.64,.58,.96,1.09,1.92,3.33,2.19,4.88,.57,.1-.11,.15-.27,.22-.41,.66-1.36,1.65-2.35,3.11-2.83,.23-.08,.49-.11,.82-.18-.26-.22-.47-.41-.69-.6-3.37-2.88-5.78-6.4-7.14-10.63-.75-2.32-1.21-4.69-1.29-7.14-.15-4.63,2.01-7.89,5.91-10.15,2.32-1.34,4.79-2.17,7.51-2.04,1.83,.09,3.52,.61,4.87,1.93,1.29,1.25,1.76,2.85,1.83,4.6,.09,2.17-.4,4.23-1.08,6.26-1.98,5.91-4.37,11.67-6.68,17.45-.47,1.18-.36,1.58,.63,2.39,.86,.7,1.79,.98,2.94,.68Zm-4.84-2.41c.12-.26,.17-.35,.21-.45,.8-2.01,1.58-4.02,2.39-6.02,1.79-4.41,3.5-8.85,4.87-13.42,.56-1.86,.83-3.75,.37-5.7-.57-2.43-2.42-4.02-4.9-4.2-3.03-.22-5.72,.65-8.17,2.38-2.38,1.67-3.89,3.88-4.31,6.82-.35,2.49-.06,4.92,.59,7.31,1.1,4.03,3.08,7.6,6.03,10.58,.91,.92,1.89,1.77,2.91,2.71Zm10.78,8.73s-.06-.03-.09-.04c-.05,.05-.11,.1-.15,.16-.91,1.39-1.87,2.74-2.69,4.17-.73,1.28-1.26,2.66-1.38,4.16-.06,.71-.02,1.42,.51,1.98,.46,.49,1.01,.49,1.39-.06,.33-.49,.61-1.02,.84-1.56,.8-1.93,1.12-3.97,1.33-6.03,.09-.93,.16-1.85,.24-2.78Zm-12.48-8.15c-2.02-.01-3.74,2.39-3.08,4.3,.21,.62,.68,.93,1.33,.91,.5-.02,.9-.23,1.11-.67,.54-1.11,1.05-2.23,1.56-3.36,.42-.93,.24-1.05-.77-1.17-.05,0-.09,0-.14,0Zm22.03,2.19c0-.79,.04-1.53,0-2.26-.06-.87-.51-1.41-1.18-1.49-.78-.1-1.93,.55-2.15,1.22,.73-.23,.95-.18,1.28,.29-.97,.14-.89,.98-1.15,1.65,1.02,.42,2.02,.58,3.22,.58Zm-3.33,.72c-.04,.97-.01,1.99,.51,2.93,.24,.43,.51,.51,.84,.24,.94-.79,1.36-1.86,1.63-2.98-1.01-.06-1.95-.13-2.98-.19Z"/>
    <path class="cls-1" d="M14.92,26.44c.22,.1,.3,.15,.39,.17,2.34,.58,3.49,2.23,3.86,4.48,.21,1.27,.26,2.58,.31,3.87,.07,1.62,.02,3.24,.1,4.85,.05,.88,.28,2.79,.88,3.44,1.48,1.61,4.63,2.23,6.18,2.5,.15,.03,.33,.04,.43,.13,.16,.15,.37,.36,.38,.56,.01,.32-.29,.36-.56,.34-1.8-.17-6.25-1.01-7.6-2.73-.62-.79-1.03-2.85-1.09-3.87-.14-2.39-.16-4.78-.24-7.17-.04-1.13-.18-2.24-.67-3.29-.71-1.5-1.91-2.2-3.53-2.25-.44-.01-.87,.01-1.31,.01-.36,0-.63-.14-.68-.53-.04-.38,.1-.66,.47-.8,.77-.29,1.55-.56,2.31-.88,5.92-2.45,10.82-6.23,14.67-11.35,1.43-1.9,2.6-3.97,3.13-6.33,.26-1.15,.25-2.31-.15-3.44-.46-1.32-1.33-1.84-2.71-1.71-1.66,.16-3.11,.82-4.44,1.78-3.34,2.43-5.99,5.5-8.3,8.89-2.97,4.36-5.15,9.13-7,14.06-2.28,6.09-4.16,12.29-5.58,18.64-.19,.83-.15,1.71-.26,2.56-.07,.51-.18,1.02-.34,1.52-.11,.36-.4,.6-.81,.52-.4-.07-.66-.34-.64-.73,.04-1.02,.08-2.05,.22-3.06,.57-4.2,1.14-8.41,1.78-12.6,.79-5.16,1.97-10.24,3.29-15.29,.88-3.4,1.69-6.82,2.53-10.23,.06-.24,.08-.5,.13-.75,.07-.34,.17-.71,.61-.67,.39,.04,.56,.37,.53,.75-.08,1.02-.05,2.07-.29,3.05-1.02,4.18-2.22,8.32-3.16,12.52-1.11,4.96-2.01,9.96-3,14.94-.04,.22-.03,.45-.04,.67,.06,.01,.12,.02,.18,.03,.09-.26,.18-.51,.26-.77,1.59-5.46,3.25-10.89,5.54-16.11,1.93-4.39,4.2-8.58,7.22-12.33,2.19-2.72,4.65-5.15,7.72-6.87,1.32-.74,2.68-1.4,4.26-1.41,2.35,0,3.86,1.38,4.04,3.74,.13,1.75-.27,3.39-.96,4.95-1.65,3.75-4.16,6.87-7.18,9.58-1.82,1.63-3.76,3.13-5.9,4.31-1.38,.76-2.86,1.33-4.29,1.99-.18,.08-.36,.16-.68,.29Z"/>
    <path class="cls-1" d="M32.08,36.62c.55-.81,1.1-1.64,1.67-2.44,.3-.42,.71-.71,1.27-.67,.72,.06,1.11,.37,1.31,1.07,.12,.42,.19,.86,.29,1.28,.05,.21,.13,.41,.23,.74,.2-.26,.34-.42,.46-.58,.44-.59,.82-1.23,1.33-1.75,1.34-1.37,3.35-1,4.07,.77,.49,1.2,.85,1.65,2.52,.92,.42-.18,.81-.42,1.22-.6,.1-.05,.25,0,.38,.02-.05,.11-.07,.26-.16,.34-.69,.6-1.43,1.12-2.37,1.25-.99,.13-1.74-.25-2.23-1.13-.18-.33-.34-.67-.55-.98-.44-.66-1-.76-1.58-.24-.45,.4-.82,.89-1.19,1.37-.35,.46-.63,.98-1,1.42-.62,.74-1.45,.65-1.83-.23-.28-.65-.41-1.37-.62-2.06-.05-.15-.14-.29-.22-.43-.14,.1-.34,.17-.43,.3-.71,1.14-1.4,2.3-2.09,3.45-.35,.58-.85,.76-1.33,.45-.36-.23-.43-.6-.43-.99,0-.96,0-1.91,0-2.84-.68,.6-1.37,1.25-2.1,1.85-1,.82-2.1,1.41-3.44,1.45-2.2,.06-3.66-1.68-3.11-3.81,.43-1.66,1.16-3.18,2.56-4.28,.43-.34,.89-.52,1.44-.37,.53,.15,.76,.54,.64,1.08-.26,1.22-.96,2.12-2,2.78-.32,.2-.64,.4-.93,.63-.52,.4-.64,.95-.5,1.56,.15,.64,.49,1.11,1.16,1.29,1.06,.27,2.09,.08,2.99-.46,1.11-.67,2.13-1.48,3.17-2.25,.13-.1,.18-.35,.19-.54,.03-.5,0-1,.04-1.5,.02-.3,.04-.67,.48-.69,.46-.02,.78,.26,.79,.74,.01,.52-.02,1.03-.05,1.55-.05,.84-.11,1.67-.16,2.51,.03,0,.06,0,.1,0Zm-7.93-3.54c1.1-.29,1.82-1.25,1.54-1.99-.71,.49-1.17,1.14-1.54,1.99Z"/>
    <path class="cls-1" d="M47.52,30.15c.24,.04,.44,.04,.6,.12,.19,.1,.42,.25,.47,.42,.03,.13-.18,.38-.34,.48-.43,.24-.9,.26-1.35,.07-.16-.07-.36-.27-.37-.42,0-.15,.18-.36,.33-.45,.21-.12,.46-.16,.66-.22Z"/>
  </g>
  <line class="cls-2" x1="24.15" y1="41.77" x2="100.49" y2="41.77"/>
</svg>