<?xml version="1.0" encoding="UTF-8"?>
<svg id="Layer_1" data-name="Layer 1" xmlns="http://www.w3.org/2000/svg" viewBox="0 0 110.38 61.65">
  <defs>
    <style>
      .cls-1, .cls-2 {
        fill: #2e3346;
      }

      .cls-2 {
        stroke: #2e3346;
        stroke-miterlimit: 10;
        stroke-width: 2.26px;
      }
    </style>
  </defs>
  <g>
    <path class="cls-1" d="M82.9,35.01c-.31-.77-.33-1.53-.26-2.3,.02-.18,.05-.37,.1-.54,.07-.23,.2-.41,.49-.35,.29,.06,.54,.19,.52,.54-.01,.21-.08,.41-.12,.62-.12,.54-.11,1.07,.1,1.59,.2,.5,.59,.79,1.11,.82,.49,.03,.84-.27,1.05-.71,.16-.35,.3-.7,.45-1.05,.35-.81,.88-.91,1.46-.24,.64,.74,.88,1.64,1.01,2.58,.07,.55,.1,1.1,.15,1.67,.88-.94,1.75-1.87,2.68-2.86-.36-1.03,.34-1.88,1.12-2.63,.4-.38,.95-.7,1.49-.84,1.07-.28,2.13,.57,2.3,1.79,.1,.69,.09,1.38,.13,2.13,.39-.05,.86-.11,1.32-.17,.1-.01,.21-.05,.31-.04,.09,0,.18,.07,.26,.11-.06,.08-.1,.21-.17,.23-.4,.13-.8,.29-1.21,.34-.47,.06-.71,.23-.84,.72-.24,.9-.71,1.7-1.33,2.4-.05,.06-.1,.12-.16,.17-.87,.83-1.63,.69-2.16-.38-.47-.94-.5-1.95-.56-2.97,0-.15-.07-.31-.1-.46-.04-.01-.08-.02-.13-.03-.42,.46-.86,.91-1.26,1.39-.38,.46-.7,.96-1.08,1.42-.47,.56-.57,1.21-.61,1.91-.12,2.4-.24,4.8-.96,7.11-.25,.8-.62,1.57-1.04,2.29-.4,.69-1.05,1.17-1.91,.97-.91-.21-1.32-.92-1.47-1.77-.21-1.12,.04-2.21,.41-3.26,.84-2.41,2.22-4.5,3.79-6.49,.13-.17,.25-.43,.22-.63-.13-1.12-.31-2.24-.48-3.36-.03-.19-.14-.36-.26-.64-.13,.23-.21,.36-.29,.5-.15,.28-.25,.59-.43,.84-.73,1.03-2.36,1.12-3.23,.2-.09-.1-.17-.2-.28-.32-1.01,.73-1.95,.42-2.87-.22-.21-.14-.43-.26-.63-.4-.31-.23-.49-.12-.62,.2-.15,.38-.3,.76-.48,1.13-.28,.58-.55,1.17-.89,1.71-.57,.91-1.55,1.24-2.54,.91-.89-.29-1.48-1.21-1.43-2.23,0-.13,0-.25,0-.32-.6,.22-1.2,.48-1.82,.65-1.08,.29-1.99-.03-2.64-.94-.35-.49-.65-1.02-.97-1.53-.59-.93-.99-.96-1.58-.03-.47,.74-.82,1.56-1.22,2.34-.31,.61-.82,.82-1.31,.46-.22-.16-.34-.48-.46-.74-.08-.17-.08-.38-.12-.63-.37,.44-.71,.85-1.04,1.25-.67,.8-1.49,1.41-2.45,1.83-.08,.04-.17,.08-.25,.11-1.28,.44-2.23-.17-2.31-1.52-.04-.63,.04-1.26,.06-1.9,0-.25,0-.49,0-.77-.14,.01-.21,.04-.29,.03-.15-.02-.4-.02-.43-.1-.05-.15-.03-.37,.05-.51,.15-.26,.84-.45,1.15-.36,.41,.13,.47,.48,.46,.83-.01,.57-.09,1.13-.1,1.7-.01,.45,0,.9,.04,1.34,.05,.49,.34,.66,.84,.6,.76-.09,1.43-.4,1.99-.89,.7-.6,1.35-1.25,2.01-1.9,.11-.11,.16-.35,.15-.52-.06-.62-.15-1.23-.24-1.84-.01-.08-.02-.16-.02-.24-.02-.31,.08-.58,.4-.64,.34-.07,.52,.17,.56,.47,.09,.6,.14,1.21,.23,1.8,.04,.24,.17,.47,.26,.7,.19-.17,.41-.33,.57-.53,.3-.38,.53-.83,.86-1.18,.79-.82,1.63-.82,2.45-.02,.25,.25,.47,.54,.67,.83,.18,.26,.33,.54,.49,.81,.92,1.61,2.8,1.84,4.1,.48,.09-.09,.13-.22,.19-.34,.55-1.14,1.39-1.97,2.61-2.38,.2-.07,.41-.09,.69-.15-.22-.19-.4-.35-.58-.5-2.83-2.42-4.86-5.39-6.01-8.94-.63-1.95-1.02-3.95-1.09-6.01-.13-3.89,1.69-6.64,4.97-8.54,1.95-1.13,4.03-1.83,6.32-1.72,1.54,.07,2.96,.52,4.1,1.62,1.08,1.05,1.48,2.4,1.54,3.87,.08,1.82-.33,3.56-.91,5.27-1.66,4.97-3.67,9.82-5.62,14.68-.4,.99-.3,1.33,.53,2.01,.72,.59,1.51,.83,2.47,.57Zm-4.07-2.03c.1-.21,.14-.3,.18-.38,.67-1.69,1.33-3.38,2.01-5.07,1.51-3.71,2.94-7.45,4.1-11.29,.47-1.57,.7-3.16,.31-4.8-.48-2.05-2.04-3.38-4.13-3.53-2.55-.18-4.81,.55-6.88,2-2,1.41-3.28,3.26-3.62,5.74-.29,2.1-.05,4.14,.5,6.15,.93,3.39,2.59,6.39,5.08,8.9,.77,.77,1.59,1.49,2.45,2.28Zm9.07,7.34s-.05-.02-.08-.03c-.04,.04-.09,.08-.12,.14-.76,1.17-1.57,2.31-2.27,3.51-.62,1.07-1.06,2.24-1.16,3.5-.05,.6-.01,1.19,.43,1.67,.39,.41,.85,.41,1.17-.05,.28-.41,.52-.86,.71-1.32,.67-1.62,.94-3.34,1.12-5.07,.08-.78,.14-1.56,.21-2.34Zm-10.5-6.86c-1.7,0-3.15,2.01-2.59,3.61,.18,.52,.58,.79,1.11,.76,.42-.02,.75-.2,.93-.57,.45-.93,.88-1.88,1.31-2.83,.35-.79,.2-.89-.65-.98-.04,0-.08,0-.12,0Zm18.53,1.84c0-.67,.03-1.29,0-1.9-.05-.73-.43-1.18-.99-1.25-.66-.08-1.63,.46-1.81,1.02,.61-.19,.8-.15,1.08,.25-.82,.12-.75,.82-.97,1.39,.85,.36,1.7,.49,2.71,.49Zm-2.8,.6c-.03,.81-.01,1.68,.43,2.47,.2,.36,.43,.43,.7,.2,.79-.66,1.14-1.56,1.38-2.51-.85-.05-1.64-.11-2.51-.16Z"/>
    <path class="cls-1" d="M30.1,28.38c.18,.08,.25,.13,.33,.15,1.97,.49,2.94,1.88,3.25,3.77,.17,1.07,.22,2.17,.26,3.26,.06,1.36,.02,2.72,.09,4.08,.04,.74,.23,2.35,.74,2.9,1.25,1.35,3.9,1.88,5.2,2.1,.12,.02,.28,.03,.36,.11,.14,.13,.31,.31,.32,.47,.01,.27-.24,.31-.47,.29-1.52-.14-5.26-.85-6.39-2.29-.52-.67-.87-2.4-.92-3.25-.12-2.01-.13-4.02-.2-6.03-.03-.95-.15-1.89-.56-2.77-.59-1.26-1.61-1.85-2.97-1.89-.37-.01-.74,.01-1.1,0-.3,0-.53-.12-.57-.45-.04-.32,.09-.55,.4-.67,.65-.24,1.3-.47,1.94-.74,4.98-2.06,9.11-5.24,12.34-9.55,1.2-1.6,2.19-3.34,2.63-5.33,.22-.97,.21-1.94-.12-2.89-.39-1.11-1.12-1.55-2.28-1.44-1.39,.14-2.61,.69-3.73,1.5-2.81,2.04-5.04,4.63-6.98,7.48-2.5,3.67-4.33,7.68-5.89,11.83-1.92,5.12-3.5,10.34-4.7,15.68-.16,.7-.13,1.44-.22,2.15-.06,.43-.16,.86-.28,1.28-.1,.31-.33,.5-.68,.44-.33-.06-.55-.29-.54-.62,.04-.86,.07-1.72,.19-2.58,.48-3.54,.96-7.07,1.5-10.6,.67-4.34,1.66-8.61,2.76-12.86,.74-2.86,1.42-5.74,2.13-8.61,.05-.21,.07-.42,.11-.63,.06-.29,.15-.6,.51-.56,.33,.04,.47,.31,.44,.63-.07,.86-.04,1.74-.24,2.57-.86,3.52-1.87,7-2.66,10.53-.93,4.17-1.69,8.38-2.52,12.57-.04,.18-.03,.38-.04,.57,.05,0,.1,.02,.15,.03,.07-.21,.15-.43,.22-.64,1.33-4.59,2.73-9.16,4.66-13.55,1.62-3.7,3.54-7.22,6.08-10.37,1.84-2.29,3.91-4.33,6.5-5.78,1.11-.62,2.25-1.18,3.59-1.18,1.98,0,3.24,1.16,3.4,3.15,.11,1.47-.23,2.85-.81,4.17-1.39,3.15-3.5,5.78-6.04,8.06-1.53,1.37-3.16,2.63-4.96,3.62-1.16,.64-2.4,1.12-3.61,1.67-.15,.07-.31,.13-.57,.25Z"/>
    <path class="cls-1" d="M44.54,36.95c.47-.69,.92-1.38,1.41-2.05,.25-.35,.6-.6,1.07-.56,.61,.05,.94,.31,1.11,.9,.1,.35,.16,.72,.25,1.08,.04,.17,.11,.34,.19,.62,.17-.22,.28-.35,.39-.49,.37-.49,.69-1.04,1.12-1.47,1.13-1.15,2.81-.84,3.42,.65,.41,1.01,.71,1.39,2.12,.77,.35-.15,.68-.35,1.03-.51,.09-.04,.21,0,.32,.01-.04,.1-.06,.22-.13,.28-.58,.51-1.2,.94-2,1.05-.83,.11-1.46-.21-1.87-.95-.15-.28-.28-.57-.46-.83-.37-.55-.84-.64-1.33-.2-.38,.34-.69,.75-1,1.16-.3,.38-.53,.82-.84,1.19-.52,.62-1.22,.54-1.54-.19-.24-.55-.34-1.16-.52-1.73-.04-.13-.12-.24-.18-.36-.12,.08-.29,.14-.36,.26-.6,.96-1.18,1.94-1.76,2.91-.29,.49-.72,.64-1.12,.38-.3-.2-.36-.51-.36-.83,0-.8,0-1.61,0-2.39-.57,.5-1.15,1.05-1.77,1.56-.84,.69-1.77,1.19-2.89,1.22-1.85,.05-3.08-1.41-2.62-3.2,.36-1.4,.98-2.67,2.15-3.6,.36-.28,.75-.44,1.21-.31,.44,.13,.64,.45,.54,.91-.22,1.02-.81,1.79-1.68,2.34-.27,.17-.53,.34-.78,.53-.44,.33-.54,.8-.42,1.31,.12,.54,.41,.94,.97,1.08,.89,.23,1.76,.07,2.52-.39,.93-.56,1.79-1.24,2.67-1.9,.11-.08,.15-.3,.16-.45,.03-.42,0-.84,.04-1.26,.02-.26,.03-.56,.4-.58,.39-.02,.66,.22,.67,.62,.01,.43-.02,.87-.04,1.3-.04,.7-.09,1.41-.14,2.11,.03,0,.05,0,.08,0Zm-6.67-2.98c.92-.25,1.53-1.05,1.3-1.68-.59,.41-.98,.96-1.3,1.68Z"/>
    <path class="cls-1" d="M57.54,31.5c.2,.04,.37,.03,.51,.1,.16,.08,.36,.21,.39,.35,.03,.11-.15,.32-.29,.4-.36,.21-.76,.22-1.14,.06-.14-.06-.3-.23-.31-.35,0-.12,.15-.3,.28-.38,.17-.1,.39-.13,.55-.18Z"/>
  </g>
  <line class="cls-2" x1="37.87" y1="41.27" x2="102.1" y2="41.27"/>
</svg>