<?xml version="1.0" encoding="UTF-8"?>
<svg id="Layer_3" data-name="Layer 3" xmlns="http://www.w3.org/2000/svg" viewBox="0 0 32 32">
  <defs>
    <style>
      .cls-1 {
        fill: none;
        stroke: #000;
        stroke-linecap: round;
        stroke-linejoin: round;
        stroke-width: 1.54px;
      }
    </style>
  </defs>
  <path d="M24.38,22.05c-.13,.43-.42,.67-.88,.61-.39-.06-.7-.3-.64-.73,.06-.46,.39-.7,.85-.62,.39,.06,.64,.31,.66,.75Z"/>
  <path d="M24.36,17.67c-.03,.45-.29,.69-.71,.65-.43-.04-.78-.29-.76-.77,0-.39,.32-.56,.67-.58,.47-.03,.74,.23,.8,.7Z"/>
  <path d="M23.64,25.65c.4,.06,.74,.21,.7,.68-.04,.41-.28,.71-.71,.71-.48,0-.76-.33-.76-.78,0-.46,.38-.57,.77-.62Z"/>
  <path d="M19.53,17.72c-.08,.39-.24,.76-.75,.73-.42-.03-.66-.31-.61-.74,.06-.45,.35-.72,.81-.7,.4,.02,.54,.31,.54,.71Z"/>
  <path d="M19.54,22.05c-.07,.41-.29,.72-.72,.69-.45-.03-.75-.34-.7-.82,.05-.42,.35-.67,.77-.63,.42,.04,.63,.34,.65,.76Z"/>
  <path d="M18.88,27.06c-.47-.03-.73-.29-.75-.76-.02-.47,.3-.64,.7-.64,.42,0,.7,.2,.69,.65,0,.41-.21,.68-.64,.75Z"/>
  <path d="M7.57,21.56c.43,.08,.68,.34,.67,.75,0,.4-.24,.74-.66,.75-.44,0-.8-.29-.81-.74-.01-.47,.38-.67,.8-.76Z"/>
  <path d="M8.26,26.73c-.1,.4-.28,.74-.73,.69-.45-.05-.77-.35-.75-.81,.03-.44,.41-.6,.81-.59,.43,.02,.67,.27,.67,.71Z"/>
  <path d="M7.46,18.69c-.39-.09-.73-.28-.7-.73,.03-.47,.38-.74,.84-.74,.42,0,.59,.31,.55,.69-.04,.4-.23,.71-.69,.77Z"/>
  <g>
    <polygon class="cls-1" points="2.27 8.42 10.29 8.42 10.29 14.93 6.12 14.95 5.88 14.95 4.81 14.96 4.38 14.96 2.27 14.98 2.27 8.42"/>
    <path class="cls-1" d="M29.73,8.42v6.36l-2.07,.02-9.33,.07h-.05v.04l-3.45,.02v-.31s0-.11,0-.11l-.04-6.08c.86,0,1.73-.12,2.54-.37h.95v.37h11.45Z"/>
    <polygon class="cls-1" points="6.12 14.95 10.29 14.93 10.29 29.09 4.38 29.09 4.38 14.96 5.88 14.95 6.12 14.95"/>
    <polygon class="cls-1" points="27.66 14.79 27.66 29.09 14.94 29.09 14.93 28.73 14.84 14.91 18.28 14.9 18.33 14.9 18.33 14.86 27.66 14.79"/>
    <rect class="cls-1" x="18.28" y="14.86" width=".05" height=".04"/>
    <rect class="cls-1" x="18.28" y="14.86" width=".05" height=".04"/>
    <path class="cls-1" d="M12.58,8.2c-.7,.15-1.49,.23-2.29,.21-2.91-.06-6-1.37-5.68-4.93,.19-2.16,3.3-2.22,4.19-1.9,3.11,1.1,3.69,5.59,3.78,6.47,0,.1,.01,.15,.01,.15Z"/>
    <path class="cls-1" d="M17.33,8.05c-.8,.25-1.68,.36-2.54,.37-.34,0-.68,0-1.01-.04-.4-.03-.78-.09-1.14-.17,0,0,0-.05,.01-.15,.08-.88,.66-5.37,3.78-6.47,.89-.31,4-.25,4.19,1.9,.23,2.57-1.32,3.96-3.29,4.57Z"/>
    <path class="cls-1" d="M14.94,29.39h-4.65V8.42h3.49v-.05c.33,.03,.67,.05,1.01,.04l.04,6.16v.12s0,.31,0,.31l.1,14.01v.37Z"/>
    <path class="cls-1" d="M13.78,8.37v.05h-3.49c.8,.01,1.59-.06,2.29-.22,0,0,0-.05-.01-.15h.08c0,.1-.01,.15-.01,.15,.36,.08,.75,.14,1.14,.17Z"/>
  </g>
</svg>